<ttFont>
          <CharString index="0">
            rmoveto
            -106 callsubr
            -211 hmoveto
            -106 callsubr
            endchar
          </CharString>
          <CharString index="1">
            14 -27 21 -21 27 -14 27 15 22 22 16 27 -15 27 -20 20 -27 15 -28 -15 -22 -22 -15 -27 rrcurveto
            return
          </CharString>
          <CharString index="2">
            -18 callsubr
            395 41 -86 callsubr
            -12 673 rmoveto
            -67 callsubr
            -22 callsubr
            -21 callsubr
            hvcurveto
            return
          </CharString>
          <CharString index="3">
            rmoveto
            24 -16 50 -31 36 18 30 13 59 73 5 8 -31 33 rcurveline
            -28 -27 -15 -15 -16 -14 -7 -1 rlinecurve
            -19 -4 -25 21 -21 13 -24 16 -50 31 -36 -18 -30 -13 -59 -73 -5 -8 31 -33 rcurveline
            28 27 15 15 16 12 7 3 rlinecurve
            19 4 25 -21 21 -13 rrcurveto
            endchar
          </CharString>
          <CharString index="4">
            -20 31 callsubr
            90 hintmask 01111100
            -101 callsubr
            hintmask 10111100
            -33 callsubr
            hintmask 01111100
            -78 callsubr
            hintmask 10111100
            -47 callsubr
            return
          </CharString>
          <CharString index="5">
            62 rmoveto
            -244 638 rlineto
            -73 hlineto
            -241 -640 -71 -25 rlineto
            -35 201 -27 callsubr
            -81 15 61 160 rlineto
            275 hlineto
            64 -163 -71 -22 rlineto
            -35 230 -27 callsubr
            rlineto
            -371 539 rmoveto
            118 -309 rlineto
            -235 hlineto
            return
          </CharString>
          <CharString index="6">
            507 hmoveto
            10 46 -72 17 rlineto
            307 vlineto
            120 -83 39 -104 -68 -59 -21 -23 -52 vhcurveto
            -35 callsubr
            -85 callsubr
            return
          </CharString>
          <CharString index="7">
            hstem
            40 100 314 100 vstem
            304 47 -80 callsubr
            -15 483 -59 callsubr
            160 89 137 135 134 -85 132 -180 hvcurveto
            return
          </CharString>
          <CharString index="8">
            45 callsubr
            100 359 69 vstem
            320 -25 callsubr
            -403 vlineto
            -173 97 -70 188 211 32 148 117 vhcurveto
            381 vlineto
            85 64 callsubr
            -240 vlineto
            18 callsubr
            2 -360 rlineto
            -102 9 -129 -180 -121 -68 62 125 vhcurveto
            404 vlineto
            return
          </CharString>
          <CharString index="9">
            619 -102 callsubr
            return
          </CharString>
          <CharString index="10">
            hstem
            40 100 255 100 vstem
            495 -24 callsubr
            -115 -126 -89 -177 -173 112 -98 132 67 71 25 51 65 vhcurveto
            -22 38 rlineto
            -42 callsubr
            3 54 rmoveto
            -38 callsubr
            return
          </CharString>
          <CharString index="11">
            -20 callsubr
            221 -103 callsubr
            return
          </CharString>
          <CharString index="12">
            493 55 rmoveto
            -263 281 hlineto
            -48 callsubr
            -169 -4 rlineto
            254 244 vlineto
            -7 callsubr
            -511 vlineto
            -89 callsubr
            542 160 vlineto
            -52 11 rlineto
            return
          </CharString>
          <CharString index="13">
            -20 hstem
            -98 callsubr
            return
          </CharString>
          <CharString index="14">
            -84 callsubr
            16 -31 24 -24 31 -16 8 -37 -9 -59 -48 -32 20 -25 rcurveline
            69 24 50 135 -16 67 rrcurveto
            return
          </CharString>
          <CharString index="15">
            -6 callsubr
            hintmask 10111100
            111 176 rmoveto
            -128 55 -56 96 55 73 29 55 45 vhcurveto
            hintmask 01111100
            -61 callsubr
            hintmask 10111100
            -58 callsubr
            return
          </CharString>
          <CharString index="16">
            -71 callsubr
            -1 hlineto
            -116 -179 -43 callsubr
          </CharString>
          <CharString index="17">
            -4 callsubr
            -95 callsubr
            return
          </CharString>
          <CharString index="18">
            -10 -45 95 -81 callsubr
            return
          </CharString>
          <CharString index="19">
            16 -31 24 -24 31 -16 31 17 25 25 18 31 -84 callsubr
            rrcurveto
            return
          </CharString>
          <CharString index="20">
            -93 callsubr
            endchar
          </CharString>
          <CharString index="21">
            -72 callsubr
            172 73 -162 -165 -153 -89 -138 -133 hvcurveto
            return
          </CharString>
          <CharString index="22">
            11 31 32 3 31 hhcurveto
            56 46 -28 -75 hvcurveto
            -82 vlineto
            -72 -8 -57 -11 -65 -17 rrcurveto
            -87 -23 -29 -40 -67 vvcurveto
            return
          </CharString>
          <CharString index="23">
            -17 31 -23 23 -31 17 -32 -17 -25 -25 -17 -31 return
          </CharString>
          <CharString index="24">
            26 callsubr
            325 665 rmoveto
            35 -280 vlineto
            -75 callsubr
            572 vlineto
            return
          </CharString>
          <CharString index="25">
            rmoveto
            -88 callsubr
            return
          </CharString>
          <CharString index="26">
            -19 rlineto
            -572 -46 callsubr
            return
          </CharString>
          <CharString index="27">
            rmoveto
            -125 -39 112 110 104 43 102 107 125 39 -112 -110 -104 -43 -102 -107 hvcurveto
            return
          </CharString>
          <CharString index="28">
            -20 hstem
            123 90 vstem
            213 527 -76 callsubr
            return
          </CharString>
          <CharString index="29">
            -81 vlineto
            -210 131 -74 callsubr
            return
          </CharString>
          <CharString index="30">
            -20 callsubr
            31 callsubr
            90 hintmask 01111000
            -101 callsubr
            hintmask 10111000
            -33 callsubr
            hintmask 01111000
            -78 callsubr
            hintmask 10111000
            -47 callsubr
            return
          </CharString>
          <CharString index="31">
            rmoveto
            -31 callsubr
            -387 -49 callsubr
            return
          </CharString>
          <CharString index="32">
            -89 callsubr
            280 -41 callsubr
            return
          </CharString>
          <CharString index="33">
            rmoveto
            41 19 36 63 17 vhcurveto
            43 12 42 5 43 5 rrcurveto
            -114 vlineto
            return
          </CharString>
          <CharString index="34">
            36 91 39 97 57 122 63 156 65 29 rcurveline
            30 -178 47 callsubr
            61 -10 -138 -332 -6 28 -124 307 60 25 rlineto
            30 -214 vlineto
            -10 -45 69 -17 180 -441 -8 -21 -9 -21 -7 -17 rlinecurve
            return
          </CharString>
          <CharString index="35">
            rmoveto
            -172 -73 162 165 153 89 138 133 return
          </CharString>
          <CharString index="36">
            rmoveto
            55 hlineto
            -117 179 1 1 rlineto
            -71 return
          </CharString>
          <CharString index="37">
            -20 hstem
            220 -42 rmoveto
            -60 -32 -12 -42 -72 hhcurveto
            -18 -20 2 5 -21 hvcurveto
            -28 -83 rlineto
            -7 23 21 -3 20 hhcurveto
            78 49 48 53 29 hvcurveto
            29 51 28 73 -73 callsubr
            return
          </CharString>
          <CharString index="38">
            rmoveto
            65 -48 15 -40 3 vhcurveto
            40 11 39 29 45 vvcurveto
            69 -64 22 -60 -41 -46 -10 -12 -31 vhcurveto
            -92 vlineto
            30 -5 16 60 rlineto
            11 17 20 3 23 hhcurveto
            37 29 -12 -40 -33 -21 -22 -33 -7 hvcurveto
            -30 -35 33 hlineto
            43 -9 17 -19 -36 vvcurveto
            -47 -30 -20 -53 -23 -22 4 11 -16 vhcurveto
            -18 61 -30 -5 rlineto
            -93 vlineto
            -12 32 46 -11 43 hhcurveto
            68 73 34 77 hvcurveto
            endchar
          </CharString>
          <CharString index="39">
            rmoveto
            247 86 hlineto
            -26 4 -10 -40 rlineto
            -131 hlineto
            121 115 50 35 66 vvcurveto
            71 -65 30 -68 -32 -48 -17 -20 -28 vhcurveto
            -87 vlineto
            25 -4 21 65 rlineto
            12 16 21 6 20 hhcurveto
            return
          </CharString>
          <CharString index="40">
            -30 callsubr
            -192 117 -173 222 return
          </CharString>
          <CharString index="41">
            rmoveto
            -98 hlineto
            -87 -183 4 callsubr
            return
          </CharString>
          <CharString index="42">
            53 callsubr
            216 -20 -105 callsubr
            return
          </CharString>
          <CharString index="43">
            29 callsubr
            249 -92 callsubr
            return
          </CharString>
          <CharString index="44">
            37 callsubr
            250 -99 callsubr
            return
          </CharString>
          <CharString index="45">
            rmoveto
            55 hlineto
            -107 168 rlineto
            -98 hlineto
            endchar
          </CharString>
          <CharString index="46">
            -76 -5 callsubr
            459 -155 47 callsubr
            76 -14 rlineto
            -334 vlineto
            return
          </CharString>
          <CharString index="47">
            -26 15 callsubr
            222 -20 -97 callsubr
            return
          </CharString>
          <CharString index="48">
            -26 callsubr
            -134 85 -132 180 return
          </CharString>
          <CharString index="49">
            -28 callsubr
            325 -160 vlineto
            -10 -45 80 -17 rlineto
            return
          </CharString>
          <CharString index="50">
            25 callsubr
            220 -20 -100 callsubr
            return
          </CharString>
          <CharString index="51">
            vstem
            552 491 rmoveto
            40 callsubr
            169 vlineto
            28 -61 -62 13 -61 hhcurveto
            -197 -176 -136 -226 -235 159 -123 182 99 69 29 28 57 hvcurveto
            169 vlineto
            -51 10 -36 -153 rlineto
            -15 -31 -32 -12 -51 hhcurveto
            -139 -121 76 226 209 122 98 129 40 45 -4 -20 32 hvcurveto
            return
          </CharString>
          <CharString index="52">
            rmoveto
            -65 51 -51 65 65 52 51 65 65 -52 52 -65 -65 -51 -52 -65 vhcurveto
            49 hmoveto
            51 23 27 44 45 23 -27 -51 -49 -23 -28 -45 -44 -23 28 49 vhcurveto
            endchar
          </CharString>
          <CharString index="53">
            -66 callsubr
            endchar
          </CharString>
          <CharString index="54">
            25 callsubr
            -100 callsubr
            return
          </CharString>
          <CharString index="55">
            rmoveto
            -214 -171 -176 -210 -210 171 -176 214 214 171 176 210 210 -171 176 -214 hvcurveto
            -52 vmoveto
            184 137 -158 -176 -176 -137 -158 -184 -184 -138 158 176 176 138 158 184 hvcurveto
            return
          </CharString>
          <CharString index="56">
            107 21 -21 220 55 425 -94 callsubr
            return
          </CharString>
          <CharString index="57">
            17 -31 23 -23 31 -17 32 17 25 25 17 31 -16 31 -24 24 -31 16 -8 36 10 60 47 32 -20 25 rcurveline
            -70 -24 -49 -136 16 -66 rrcurveto
            return
          </CharString>
          <CharString index="58">
            17 callsubr
            243 33 callsubr
            -75 14 rlineto
            return
          </CharString>
          <CharString index="59">
            169 -5 34 -66 -32 callsubr
            return
          </CharString>
          <CharString index="60">
            -35 -24 -63 -43 -48 hhcurveto
            -40 -35 13 63 hvcurveto
            return
          </CharString>
          <CharString index="61">
            vlineto
            -19 callsubr
            return
          </CharString>
          <CharString index="62">
            vstem
            415 339 rmoveto
            44 callsubr
            32 -51 -53 15 -55 hhcurveto
            -136 -130 -98 -171 -173 115 -98 136 68 66 26 51 53 hvcurveto
            -22 38 rlineto
            -31 -41 -60 -18 -45 hhcurveto
            -117 -53 105 107 117 69 90 100 23 26 -6 -11 29 hvcurveto
            return
          </CharString>
          <CharString index="63">
            rmoveto
            39 -8 10 -34 -7 -39 -6 -42 -57 -16 -41 -10 7 -30 rcurveline
            77 5 105 42 84 vvcurveto
            41 -19 29 -53 7 vhcurveto
            47 -55 vlineto
            endchar
          </CharString>
          <CharString index="64">
            4 callsubr
            96 131 rlineto
            endchar
          </CharString>
          <CharString index="65">
            -33 -51 -49 -16 -47 hhcurveto
            -101 -77 80 132 hvcurveto
            return
          </CharString>
          <CharString index="66">
            -27 callsubr
            -95 19 rlineto
            return
          </CharString>
          <CharString index="67">
            rmoveto
            -35 280 -41 callsubr
            255 vlineto
            196 318 81 28 rlineto
            35 -209 vlineto
            -10 -45 74 -12 -166 -270 -174 272 70 20 rlineto
            35 -245 vlineto
            -10 -45 78 -19 215 -338 rlineto
            -234 vlineto
            endchar
          </CharString>
          <CharString index="68">
            43 callsubr
            135 270 8 callsubr
            -53 -79 -89 -107 42 callsubr
            -107 53 -79 1 callsubr
            return
          </CharString>
          <CharString index="69">
            98 3 69 54 63 hhcurveto
            60 57 -47 -105 hvcurveto
            return
          </CharString>
          <CharString index="70">
            -29 callsubr
            242 33 callsubr
            -76 -1 callsubr
            rlineto
            return
          </CharString>
          <CharString index="71">
            270 rmoveto
            -11 callsubr
            50 80 93 107 53 50 rrcurveto
            10 vlineto
            -53 50 -93 107 -50 -15 callsubr
            return
          </CharString>
          <CharString index="72">
            -130 vlineto
            52 -9 28 114 rlineto
            return
          </CharString>
          <CharString index="73">
            -290 -154 30 callsubr
            198 51 rmoveto
            -87 callsubr
          </CharString>
          <CharString index="74">
            -84 62 -47 71 58 79 41 48 40 vhcurveto
            return
          </CharString>
          <CharString index="75">
            28 10 rlineto
            177 vlineto
            -35 10 -27 -67 return
          </CharString>
          <CharString index="76">
            -176 -24 5 -41 81 -15 rlineto
            return
          </CharString>
          <CharString index="77">
            -210 -128 -162 -201 return
          </CharString>
          <CharString index="78">
            82 2 callsubr
            -383 vlineto
            -87 21 callsubr
            return
          </CharString>
          <CharString index="79">
            -31 -26 -60 -20 -53 hhcurveto
            -64 -32 22 100 hvcurveto
            return
          </CharString>
          <CharString index="80">
            vlineto
            10 45 return
          </CharString>
          <CharString index="81">
            rmoveto
            -160 -89 -137 -135 return
          </CharString>
          <CharString index="82">
            46 callsubr
            -280 vlineto
            23 callsubr
            return
          </CharString>
          <CharString index="83">
            268 rmoveto
            125 -36 135 -178 return
          </CharString>
          <CharString index="84">
            82 callsubr
            750 -79 callsubr
            return
          </CharString>
          <CharString index="85">
            210 128 162 201 return
          </CharString>
          <CharString index="86">
            192 -118 173 -221 return
          </CharString>
          <CharString index="87">
            -30 -8 63 -34 -21 474 55 return
          </CharString>
          <CharString index="88">
            5 callsubr
            -35 return
          </CharString>
          <CharString index="89">
            hstem
            45 105 467 105 vstem
            return
          </CharString>
          <CharString index="90">
            rmoveto
            -93 callsubr
            return
          </CharString>
          <CharString index="91">
            rmoveto
            -7 13 -15 21 -23 7 -23 -7 -15 -21 -7 -13 27 -227 rcurveline
            36 hlineto
            return
          </CharString>
          <CharString index="92">
            80 -28 -12 rcurveline
            8 -35 64 -127 56 -56 rrcurveto
            -1 vlineto
            -1 1 0 -1 vvcurveto
            return
          </CharString>
          <CharString index="93">
            21 -21 700 -20 return
          </CharString>
          <CharString index="94">
            -69 0 72 377 72 hstem
            50 72 270 72 vstem
            50 hmoveto
            414 521 -414 hlineto
            72 -72 rmoveto
            270 -377 -270 hlineto
            endchar
          </CharString>
          <CharString index="95">
            -28 vlineto
            85 18 rlineto
            -259 vlineto
            -61 -20 rlineto
            -23 179 vlineto
            5 28 rlineto
            return
          </CharString>
          <CharString index="96">
            -1 -1 0 -1 0 vvcurveto
            -1 vlineto
            -56 -56 -64 -146 -8 -34 28 -12 rcurveline
            return
          </CharString>
          <CharString index="97">
            -30 62 30 -17 39 34 31 vlineto
            1 -4 -4 1 -4 hhcurveto
            -5 -5 -2 -3 -5 hvcurveto
            -4 -4 -3 -2 -3 -7 -10 16 rcurveline
            -34 -31 hlineto
            return
          </CharString>
          <CharString index="98">
            38 49 43 -49 248 -37 vlineto
            -206 -267 rlineto
            -24 183 -38 vlineto
            -109 81 rmoveto
            109 141 rlineto
            -141 vlineto
            endchar
          </CharString>
          <CharString index="99">
            -51 -55 -20 -47 -52 hvcurveto
            -58 vmoveto
            35 48 44 14 37 hhcurveto
            84 50 -75 -119 -112 -51 -94 -90 -35 -40 14 32 -47 hvcurveto
            endchar
          </CharString>
          <CharString index="100">
            32 -119 40 callsubr
            164 return
          </CharString>
          <CharString index="101">
            -20 hstemhm
            110 90 83 callsubr
            return
          </CharString>
          <CharString index="102">
            159 vlineto
            11 44 -81 18 rlineto
            return
          </CharString>
          <CharString index="103">
            -3 callsubr
            vstem
            return
          </CharString>
          <CharString index="104">
            hstem
            130 100 return
          </CharString>
          <CharString index="105">
            vlineto
            -87 21 callsubr
            263 33 callsubr
            -96 14 rlineto
            187 vlineto
            -17 43 41 -9 39 hhcurveto
            145 94 122 156 151 return
          </CharString>
          <CharString index="106">
            35 callsubr
            26 60 20 53 hhcurveto
            64 32 -22 -100 hvcurveto
            -265 vlineto
            -77 21 callsubr
            237 -27 callsubr
            -80 17 return
          </CharString>
          <CharString index="107">
            rmoveto
            323 -31 vlineto
            -35 -17 -40 -21 -44 -16 rrcurveto
            -12 callsubr
            return
          </CharString>
          <CharString index="108">
            28 12 rcurveline
            -8 34 -64 146 -56 56 rrcurveto
            -1 0 0 1 hvcurveto
            return
          </CharString>
          <CharString index="109">
            vlineto
            -177 -24 5 -44 83 -16 rlineto
            return
          </CharString>
          <CharString index="110">
            55 0 55 278 62 callsubr
            return
          </CharString>
          <CharString index="111">
            rlineto
            55 hlineto
            return
          </CharString>
          <CharString index="112">
            -95 -29 rlineto
            return
          </CharString>
          <CharString index="113">
            vmoveto
            12 callsubr
          </CharString>
          <CharString index="114">
            rmoveto
            15 -28 24 -24 28 -15 29 17 24 23 17 29 -15 29 -23 23 -29 15 -30 -17 -23 -23 -17 -29 rrcurveto
            endchar
          </CharString>
          <CharString index="115">
            rmoveto
            2 vlineto
            1 1 56 56 64 127 8 35 rlinecurve
            -28 12 return
          </CharString>
          <CharString index="116">
            679 rmoveto
            -386 -711 rlineto
            75 hlineto
            386 711 rlineto
            return
          </CharString>
          <CharString index="117">
            700 rmoveto
            -89 callsubr
            return
          </CharString>
          <CharString index="118">
            55 -82 callsubr
            return
          </CharString>
          <CharString index="119">
            -88 callsubr
            endchar
          </CharString>
          <CharString index="120">
            rmoveto
            17 -31 25 -25 32 -17 31 17 23 23 17 31 -18 31 -25 25 -31 17 -31 -16 -24 -24 -16 -31 rrcurveto
            return
          </CharString>
          <CharString index="121">
            21 -21 220 55 425 -20 return
          </CharString>
          <CharString index="122">
            -9 65 212 54 152 54 return
          </CharString>
          <CharString index="123">
            -14 callsubr
            hstem
            return
          </CharString>
          <CharString index="124">
            vlineto
            -88 21 callsubr
            return
          </CharString>
          <CharString index="125">
            -10 -45 95 -19 return
          </CharString>
          <CharString index="126">
            -9 -21 711 -20 hstem
            186 681 rmoveto
            -336 -711 rlineto
            75 hlineto
            336 711 rlineto
            endchar
          </CharString>
          <CharString index="127">
            hhcurveto
            67 71 25 51 65 hvcurveto
            -22 38 rlineto
            hintmask 10110111
            -42 callsubr
            return
          </CharString>
          <CharString index="128">
            -30 rlineto
            -30 return
          </CharString>
          <CharString index="129">
            107 14 callsubr
            return
          </CharString>
          <CharString index="130">
            18 callsubr
            rlineto
            return
          </CharString>
          <CharString index="131">
            36 32 -13 -40 -77 -32 -17 -149 -143 hvcurveto
            return
          </CharString>
          <CharString index="132">
            27 -8 55 428 55 return
          </CharString>
          <CharString index="133">
            -20 -4 callsubr
            return
          </CharString>
          <CharString index="134">
            -18 callsubr
            383 714 67 callsubr
            return
          </CharString>
          <CharString index="135">
            -19 43 65 -15 65 hhcurveto
            101 97 37 118 hvcurveto
            161 -268 -27 121 vvcurveto
            return
          </CharString>
          <CharString index="136">
            70 -8 82 -53 -21 521 -20 return
          </CharString>
          <CharString index="137">
            -21 297 -20 hstem
            return
          </CharString>
          <CharString index="138">
            hstemhm
            45 100 210 return
          </CharString>
          <CharString index="139">
            -45 hvcurveto
            -29 callsubr
            return
          </CharString>
          <CharString index="140">
            vlineto
            10 48 return
          </CharString>
          <CharString index="141">
            rmoveto
            -63 -22 -49 -52 -52 -22 49 63 63 21 51 53 51 23 -51 -63 vhcurveto
            return
          </CharString>
          <CharString index="142">
            14 rlineto
            334 vlineto
            31 return
          </CharString>
          <CharString index="143">
            rmoveto
            184 77 -117 -180 -180 -96 -113 -165 hvcurveto
            -83 return
          </CharString>
          <CharString index="144">
            186 -10 55 655 -20 return
          </CharString>
          <CharString index="145">
            -207 -14 callsubr
            return
          </CharString>
          <CharString index="146">
            50 callsubr
            82 hstem
            123 89 return
          </CharString>
          <CharString index="147">
            50 10 rlineto
            return
          </CharString>
          <CharString index="148">
            -19 callsubr
            295 vlineto
            224 125 156 192 return
          </CharString>
          <CharString index="149">
            -54 -51 rlinecurve
            -10 vlineto
            54 -51 89 return
          </CharString>
          <CharString index="150">
            40 -21 484 -20 hstem
            return
          </CharString>
          <CharString index="151">
            40 callsubr
            133 vlineto
            return
          </CharString>
          <CharString index="152">
            -20 75 callsubr
            return
          </CharString>
          <CharString index="153">
            665 rmoveto
            35 return
          </CharString>
          <CharString index="154">
            vlineto
            -10 -48 return
          </CharString>
          <CharString index="155">
            -140 -150 32 388 33 388 32 hstemhm
            return
          </CharString>
          <CharString index="156">
            rlineto
            30 -191 47 callsubr
            return
          </CharString>
          <CharString index="157">
            21 -21 447 return
          </CharString>
          <CharString index="158">
            128 -55 56 -96 -55 -73 -29 -55 -45 vhcurveto
            return
          </CharString>
          <CharString index="159">
            rmoveto
            -98 hlineto
            -82 -151 74 callsubr
          </CharString>
          <CharString index="160">
            -14 63 callsubr
            return
          </CharString>
          <CharString index="161">
            55 -3 callsubr
            return
          </CharString>
          <CharString index="162">
            -31 -76 hvcurveto
            -280 vlineto
            -72 21 callsubr
            return
          </CharString>
          <CharString index="163">
            vhcurveto
            -34 141 -50 -10 rlineto
            -169 vlineto
            return
          </CharString>
          <CharString index="164">
            hlineto
            81 225 -60 20 -89 -245 rlineto
            return
          </CharString>
          <CharString index="165">
            -8 64 -44 -21 277 54 152 54 return
          </CharString>
          <CharString index="166">
            hstem
            112 90 263 99 vstem
            202 return
          </CharString>
          <CharString index="167">
            21 -21 520 -20 hstem
            return
          </CharString>
          <CharString index="168">
            222 -20 hstem
            return
          </CharString>
          <CharString index="169">
            60 252 55 return
          </CharString>
          <CharString index="170">
            55 618 55 return
          </CharString>
          <CharString index="171">
            29 rlineto
            35 return
          </CharString>
          <CharString index="172">
            -84 41 -66 98 97 41 66 84 vhcurveto
            return
          </CharString>
          <CharString index="173">
            -21 735 -20 hstem
            140 87 vstem
            return
          </CharString>
          <CharString index="174">
            rmoveto
            -30 callsubr
            return
          </CharString>
          <CharString index="175">
            rmoveto
            -176 -24 5 -44 81 -16 rlineto
            return
          </CharString>
          <CharString index="176">
            -202 -178 -21 934 -20 hstem
            return
          </CharString>
          <CharString index="177">
            -204 -21 223 55 400 76 return
          </CharString>
          <CharString index="178">
            rmoveto
            84 -40 68 -99 -97 -41 -68 -84 return
          </CharString>
          <CharString index="179">
            -232 -149 45 795 45 hstemhm
            return
          </CharString>
          <CharString index="180">
            rmoveto
            574 76 -574 hlineto
            endchar
          </CharString>
          <CharString index="181">
            4 callsubr
            endchar
          </CharString>
          <CharString index="182">
            hstem
            125 return
          </CharString>
          <CharString index="183">
            31 -136 -21 857 -20 hstem
            return
          </CharString>
          <CharString index="184">
            vlineto
            20 -20 -52 13 -57 hhcurveto
            -97 return
          </CharString>
          <CharString index="185">
            282 44 -21 556 -20 hstem
            return
          </CharString>
          <CharString index="186">
            192 -117 160 -232 return
          </CharString>
          <CharString index="187">
            -44 591 -21 180 -20 hstem
            return
          </CharString>
          <CharString index="188">
            51 32 14 -3 -7 23 vhcurveto
            27 return
          </CharString>
          <CharString index="189">
            -254 21 -21 return
          </CharString>
          <CharString index="190">
            235 89 return
          </CharString>
        <CharString name=".notdef">
          -13 callsubr
        </CharString>
        <CharString name=".null">
          -307 endchar
        </CharString>
        <CharString name="A">
          -51 callsubr
          endchar
        </CharString>
        <CharString name="AE">
          347 0 55 261 55 -38 62 callsubr
          hstemhm
          462 100 hintmask 10111000
          82 60 rmoveto
          hintmask 11011000
          167 256 rlineto
          213 -252 hlineto
          -19 callsubr
          512 165 vlineto
          -52 6 -32 -116 rlineto
          -233 281 hlineto
          139 -5 34 -66 rlineto
          28 197 -35 hlineto
          -27 -67 -139 -4 rlineto
          254 214 vlineto
          32 -119 50 5 rlineto
          169 -512 vlineto
          -10 -45 60 -12 -380 -583 -66 -25 rlineto
          -35 203 -27 callsubr
          rlineto
          122 326 rmoveto
          177 272 rlineto
          -272 vlineto
          endchar
        </CharString>
        <CharString name="Aacute">
          22 callsubr
          248 -94 callsubr
          298 653 -54 callsubr
        </CharString>
        <CharString name="Acircumflex">
          22 callsubr
          250 -94 callsubr
          235 475 -91 callsubr
        </CharString>
        <CharString name="Acute">
          -69 762 -21 151 -20 hstem
          398 892 52 callsubr
        </CharString>
        <CharString name="Adieresis">
          22 callsubr
          222 -94 callsubr
          183 563 -107 callsubr
        </CharString>
        <CharString name="Agrave">
          104 14 callsubr
          250 -20 hstem
          620 -102 callsubr
          102 487 -62 callsubr
        </CharString>
        <CharString name="Aring">
          22 callsubr
          58 39 155 39 hstem
          222 49 135 49 vstem
          -98 callsubr
          21 579 -55 callsubr
        </CharString>
        <CharString name="Atilde">
          -51 callsubr
          123 529 -104 callsubr
        </CharString>
        <CharString name="B">
          72 0 55 280 30 -30 50 260 55 hstemhm
          130 100 226 105 -72 72 -72 105 hintmask 11011001
          329 hmoveto
          163 102 44 154 108 -95 56 -90 3 hvcurveto
          5 vlineto
          hintmask 11011010
          71 11 81 42 100 vvcurveto
          115 -87 62 -145 vhcurveto
          -284 hlineto
          -89 callsubr
          vlineto
          195 55 rmoveto
          280 113 vlineto
          96 50 -70 -68 -72 -43 -70 -117 hvcurveto
          hintmask 10111100
          -99 330 rmoveto
          260 99 vlineto
          81 46 -47 -79 -92 -59 -42 -52 hvcurveto
          endchar
        </CharString>
        <CharString name="C">
          89 -9 56 609 55 hstem
          45 105 -56 callsubr
          endchar
        </CharString>
        <CharString name="CR">
          -567 endchar
        </CharString>
        <CharString name="Ccedilla">
          89 -219 -21 231 56 609 55 hstem
          45 105 185 127 -56 callsubr
          -183 -693 -44 callsubr
        </CharString>
        <CharString name="D">
          157 0 55 590 54 callsubr
          344 105 vstem
          679 348 rmoveto
          79 callsubr
          vhcurveto
          -285 hlineto
          -10 -45 95 -19 rlineto
          -572 vlineto
          41 callsubr
          hvcurveto
          -366 297 36 callsubr
          590 hlineto
          endchar
        </CharString>
        <CharString name="E">
          3 callsubr
          -90 callsubr
          endchar
        </CharString>
        <CharString name="Eacute">
          3 callsubr
          -55 247 hstemhm
          130 100 hintmask 11101000
          -95 callsubr
          hintmask 11011000
          -53 721 52 callsubr
        </CharString>
        <CharString name="Ecircumflex">
          3 callsubr
          230 -20 -90 callsubr
          -100 579 -91 callsubr
        </CharString>
        <CharString name="Edieresis">
          3 callsubr
          202 -20 -90 callsubr
          -180 667 -107 callsubr
        </CharString>
        <CharString name="Egrave">
          3 callsubr
          230 -20 -90 callsubr
          -224 591 -62 callsubr
        </CharString>
        <CharString name="Eth">
          157 0 55 276 65 249 54 callsubr
          344 105 vstem
          36 331 rmoveto
          94 -267 hlineto
          41 callsubr
          79 callsubr
          hvcurveto
          -285 hlineto
          23 callsubr
          -240 -94 vlineto
          277 249 36 callsubr
          276 105 65 -105 249 hlineto
          endchar
        </CharString>
        <CharString name="Euro">
          4 -13 59 196 55 85 55 228 52 hstem
          538 85 rmoveto
          -26 -61 -54 -13 -46 hhcurveto
          -105 -63 65 131 -21 hvcurveto
          171 hlineto
          30 55 rlineto
          -207 hlineto
          -1 16 0 16 19 vvcurveto
          34 225 vlineto
          30 55 rlineto
          -252 hlineto
          168 16 64 60 103 hhcurveto
          31 33 -7 -15 33 hvcurveto
          -13 -129 50 -17 76 159 rlineto
          40 -61 -71 21 -71 hhcurveto
          -156 -119 -85 -195 -27 hvcurveto
          -67 hlineto
          -30 -55 rlineto
          92 hlineto
          -1 -11 0 -12 -11 vvcurveto
          -19 -1 -16 3 -16 vhcurveto
          -103 hlineto
          -30 -55 rlineto
          140 hlineto
          -163 29 98 -92 144 hhcurveto
          61 68 17 36 76 hvcurveto
          endchar
        </CharString>
        <CharString name="F">
          19 21 -21 333 60 252 55 -4 callsubr
          230 391 rmoveto
          254 244 vlineto
          32 -124 40 callsubr
          169 -511 vlineto
          -89 callsubr
          299 -27 callsubr
          -114 19 rlineto
          272 vlineto
          -48 callsubr
          rlineto
          endchar
        </CharString>
        <CharString name="G">
          149 -10 55 611 58 hstem
          45 105 380 100 vstem
          630 670 rmoveto
          29 -64 -67 15 -70 hhcurveto
          -205 -179 -112 -253 -235 165 -124 182 87 80 25 35 71 hvcurveto
          203 vlineto
          56 18 rlineto
          35 -256 -35 vlineto
          100 -19 rlineto
          -181 vlineto
          -15 -40 -43 -11 -41 hhcurveto
          -113 -143 77 227 209 119 98 159 40 45 -4 -20 32 hvcurveto
          34 -141 51 10 rlineto
          endchar
        </CharString>
        <CharString name="H">
          233 21 -21 329 55 316 -20 -3 callsubr
          340 100 vstem
          670 64 rmoveto
          572 vlineto
          95 64 callsubr
          -280 vlineto
          23 callsubr
          -252 -340 252 vlineto
          95 64 callsubr
          -280 vlineto
          -75 callsubr
          265 340 -265 -46 callsubr
          280 -27 callsubr
          rlineto
          endchar
        </CharString>
        <CharString name="I">
          -207 21 -21 700 -83 callsubr
          endchar
        </CharString>
        <CharString name="Iacute">
          38 callsubr
          248 -83 callsubr
          111 292 -54 callsubr
        </CharString>
        <CharString name="Icircumflex">
          38 callsubr
          250 -83 callsubr
          51 114 -91 callsubr
        </CharString>
        <CharString name="Idieresis">
          38 callsubr
          222 -83 callsubr
          -8 202 -107 callsubr
        </CharString>
        <CharString name="Igrave">
          38 callsubr
          250 -83 callsubr
          -78 126 -62 callsubr
        </CharString>
        <CharString name="J">
          -120 -13 56 657 -20 hstem
          254 100 vstem
          303 42 rmoveto
          53 64 -2 86 77 vvcurveto
          367 vlineto
          88 64 callsubr
          -273 vlineto
          23 callsubr
          -375 vlineto
          -43 vlineto
          -92 -6 -83 -90 -17 -18 3 7 -20 vhcurveto
          -36 148 -52 -10 rlineto
          -164 vlineto
          -23 47 56 -17 55 hhcurveto
          49 46 15 40 35 hvcurveto
          endchar
        </CharString>
        <CharString name="K">
          117 21 -21 328 55 317 26 callsubr
          306 328 rmoveto
          220 -328 rlineto
          163 hlineto
          10 45 -95 18 -216 322 185 252 85 28 rlineto
          35 -201 vlineto
          -10 -45 64 -10 -191 -262 rlineto
          -90 253 hlineto
          75 64 callsubr
          -260 vlineto
          -89 callsubr
          270 -27 callsubr
          -85 19 rlineto
          264 vlineto
          endchar
        </CharString>
        <CharString name="L">
          -10 0 55 645 45 callsubr
          100 vstem
          453 55 rmoveto
          -228 581 hlineto
          105 64 callsubr
          -290 vlineto
          -89 callsubr
          507 189 vlineto
          -50 10 rlineto
          endchar
        </CharString>
        <CharString name="M">
          378 16 callsubr
          125 60 530 100 vstem
          910 46 callsubr
          -194 vlineto
          -246 -500 -252 500 rlineto
          -177 hlineto
          -10 -45 94 -81 callsubr
          240 -41 callsubr
          490 vlineto
          248 -490 rlineto
          35 hlineto
          247 503 rlineto
          -504 vlineto
          -94 -28 rlineto
          -35 279 -41 callsubr
          572 vlineto
          endchar
        </CharString>
        <CharString name="N">
          212 16 callsubr
          125 60 409 60 vstem
          40 10 callsubr
          240 -41 callsubr
          480 vlineto
          409 -544 rlineto
          60 636 hlineto
          95 64 callsubr
          -239 vlineto
          -10 -45 94 -19 rlineto
          -479 vlineto
          -409 543 rlineto
          endchar
        </CharString>
        <CharString name="NULL">
          -567 endchar
        </CharString>
        <CharString name="Ntilde">
          212 16 callsubr
          125 60 409 60 vstem
          40 10 callsubr
          240 -41 callsubr
          480 vlineto
          409 -544 rlineto
          60 636 hlineto
          95 64 callsubr
          -239 vlineto
          -10 -45 94 -19 rlineto
          -479 vlineto
          -409 543 rlineto
          184 104 -104 callsubr
        </CharString>
        <CharString name="O">
          53 callsubr
          -105 callsubr
          endchar
        </CharString>
        <CharString name="OE">
          412 -14 55 -41 55 281 59 250 55 -41 55 hstemhm
          45 105 336 101 hintmask 01110110
          850 55 rmoveto
          -263 281 169 hlineto
          34 -71 -32 callsubr
          rlineto
          -169 250 244 hlineto
          -7 callsubr
          -427 vlineto
          hintmask 10101110
          9 -33 -35 5 -35 hhcurveto
          -67 callsubr
          hvcurveto
          hintmask 01110110
          37 33 5 9 32 hvcurveto
          448 160 hlineto
          -52 11 rlineto
          hintmask 10101110
          -487 -130 -72 callsubr
          44 38 -11 -19 32 hvcurveto
          -562 vlineto
          -12 -25 -39 -14 -27 hhcurveto
          endchar
        </CharString>
        <CharString name="Oacute">
          53 callsubr
          214 -20 -105 callsubr
          153 214 -54 callsubr
        </CharString>
        <CharString name="Ocircumflex">
          -65 callsubr
          92 36 -91 callsubr
        </CharString>
        <CharString name="Odieresis">
          53 callsubr
          188 -20 -105 callsubr
          38 124 -107 callsubr
        </CharString>
        <CharString name="Ograve">
          -65 callsubr
          -12 48 -62 callsubr
        </CharString>
        <CharString name="Oslash">
          -64 -21 71 63 callsubr
          47 -20 27 callsubr
          -125 48 -115 96 -68 hvcurveto
          -53 -99 49 -29 54 100 rlineto
          -19 43 46 -10 56 hhcurveto
          -22 callsubr
          123 -48 113 -93 68 hvcurveto
          45 83 -50 25 -43 -79 rlineto
          20 -43 -50 12 -57 hhcurveto
          -233 -346 rmoveto
          153 89 138 133 51 42 -15 -24 35 vhcurveto
          -272 -504 rlineto
          -53 63 -25 93 96 vvcurveto
          245 -327 rmoveto
          -49 -41 13 23 -33 hvcurveto
          270 503 rlineto
          51 -64 24 -91 -93 vvcurveto
          -153 -89 -138 -133 vhcurveto
          endchar
        </CharString>
        <CharString name="Otilde">
          53 callsubr
          -105 callsubr
          -25 90 -104 callsubr
        </CharString>
        <CharString name="P">
          33 21 -21 272 55 318 54 callsubr
          235 105 vstem
          45 10 callsubr
          300 -27 callsubr
          -115 19 rlineto
          208 64 vlineto
          122 154 32 178 203 -154 15 -122 hvcurveto
          -55 vmoveto
          95 76 -38 -125 -141 -87 -14 -84 hvcurveto
          -64 318 hlineto
          endchar
        </CharString>
        <CharString name="Q">
          216 -13 54 618 55 27 callsubr
          -184 108 -167 206 -13 hvcurveto
          73 -150 176 -14 130 53 rrcurveto
          37 vlineto
          -78 -16 -131 8 -59 91 rrcurveto
          158 38 94 143 172 vvcurveto
          -21 callsubr
          vhcurveto
          12 -673 -86 callsubr
          endchar
        </CharString>
        <CharString name="R">
          105 21 -21 287 55 303 54 callsubr
          240 105 vstem
          45 700 rmoveto
          -75 callsubr
          223 64 vlineto
          18 19 1 2 20 hvcurveto
          170 -290 rlineto
          151 hlineto
          10 45 -81 16 -153 252 rlineto
          71 26 56 55 93 vvcurveto
          192 -159 21 -122 vhcurveto
          -55 vmoveto
          85 91 -28 -130 -125 -91 -20 -85 hvcurveto
          -64 303 hlineto
          endchar
        </CharString>
        <CharString name="S">
          -9 -10 55 608 55 hstemhm
          61 105 232 78 -78 105 hintmask 11101000
          55 33 rmoveto
          -21 26 87 -22 87 hhcurveto
          121 127 41 142 hvcurveto
          235 -337 -39 156 vvcurveto
          88 65 40 75 27 27 -6 -11 28 vhcurveto
          38 -145 rlineto
          hintmask 11110000
          40 callsubr
          164 vlineto
          27 -27 -65 16 -73 hhcurveto
          -117 -133 -46 -136 hvcurveto
          -240 337 68 -181 vvcurveto
          -99 -70 -29 -77 -37 -37 8 13 -35 vhcurveto
          -37 141 -50 -10 rlineto
          endchar
        </CharString>
        <CharString name="T">
          60 21 -21 645 55 hstem
          265 100 vstem
          103 645 rmoveto
          162 -581 hlineto
          -19 callsubr
          280 -41 callsubr
          581 159 vlineto
          33 -144 40 callsubr
          189 -587 -189 vlineto
          50 -10 rlineto
          endchar
        </CharString>
        <CharString name="Thorn">
          0 0 213 -55 55 297 55 -55 190 hstemhm
          130 100 222 100 hintmask 01101100
          230 64 rmoveto
          94 84 vlineto
          161 77 108 107 120 -93 72 -155 hvcurveto
          -74 71 hlineto
          95 29 rlineto
          hintmask 10011100
          35 -280 vlineto
          -89 callsubr
          300 -27 callsubr
          rlineto
          -51 465 rmoveto
          93 65 -63 -75 -104 -49 -55 -129 hvcurveto
          -44 297 hlineto
          endchar
        </CharString>
        <CharString name="U">
          186 -10 55 655 -99 callsubr
          endchar
        </CharString>
        <CharString name="Uacute">
          37 callsubr
          248 -99 callsubr
          298 292 -54 callsubr
        </CharString>
        <CharString name="Ucircumflex">
          -63 callsubr
          242 114 -91 callsubr
        </CharString>
        <CharString name="Udieresis">
          37 callsubr
          222 -99 callsubr
          193 202 -107 callsubr
        </CharString>
        <CharString name="Ugrave">
          -63 callsubr
          128 126 -62 callsubr
        </CharString>
        <CharString name="V">
          82 16 callsubr
          366 hmoveto
          225 637 78 28 rlineto
          35 -217 vlineto
          -10 -45 86 -15 -179 -509 -198 512 75 22 rlineto
          35 -241 vlineto
          -10 -45 77 -19 245 -636 rlineto
          endchar
        </CharString>
        <CharString name="W">
          485 16 callsubr
          333 hmoveto
          186 538 169 -538 rlineto
          62 hlineto
          219 639 83 26 rlineto
          35 -224 vlineto
          -10 -45 88 -16 -167 -484 -171 545 rlineto
          -57 hlineto
          -187 -543 -146 484 86 24 rlineto
          35 -254 vlineto
          -10 -45 80 -18 192 -637 rlineto
          endchar
        </CharString>
        <CharString name="X">
          79 16 callsubr
          656 46 callsubr
          -205 vlineto
          -10 -45 70 -11 -163 -230 -150 231 71 20 rlineto
          35 -252 vlineto
          -10 -45 83 -19 189 -292 -210 -282 -79 -27 rlineto
          -35 211 -27 callsubr
          -73 11 175 237 155 -239 -68 -19 rlineto
          -35 243 -27 callsubr
          -78 19 -194 299 198 276 rlineto
          endchar
        </CharString>
        <CharString name="Y">
          63 16 callsubr
          278 100 vstem
          183 35 -40 callsubr
        </CharString>
        <CharString name="Yacute">
          63 -14 callsubr
          248 -20 hstem
          278 100 vstem
          501 928 -66 callsubr
          -188 -710 -40 callsubr
        </CharString>
        <CharString name="Z">
          43 0 55 590 55 hstem
          560 hmoveto
          186 vlineto
          -50 10 -37 -141 rlineto
          -309 hlineto
          381 594 rlineto
          51 -488 vlineto
          -1 -189 50 -10 38 144 rlineto
          284 hlineto
          -383 -596 rlineto
          -49 vlineto
          endchar
        </CharString>
        <CharString name="_0144">
          -69 endchar
        </CharString>
        <CharString name="a">
          -77 callsubr
          endchar
        </CharString>
        <CharString name="aacute">
          -96 callsubr
          282 619 rmoveto
          -98 hlineto
          -107 -168 74 callsubr
        </CharString>
        <CharString name="acircumflex">
          -96 callsubr
          209 439 -91 callsubr
        </CharString>
        <CharString name="acute">
          -355 586 -21 183 -20 hstem
          200 748 -54 callsubr
        </CharString>
        <CharString name="adieresis">
          -20 callsubr
          193 -103 callsubr
          160 527 -107 callsubr
        </CharString>
        <CharString name="ae">
          265 58 callsubr
          1 -20 31 callsubr
          77 255 100 hintmask 10110111
          787 -24 callsubr
          -59 -59 -23 -45 -47 vhcurveto
          hintmask 10101111
          51 -27 -51 18 -72 hhcurveto
          -68 -59 -21 -23 -52 hvcurveto
          -35 callsubr
          hintmask 10110111
          -85 callsubr
          -84 62 -47 71 113 58 75 48 40 vhcurveto
          hintmask 01110111
          -72 32 60 -52 95 20 callsubr
          -287 -137 -74 callsubr
          -47 callsubr
          290 191 rmoveto
          -38 callsubr
          endchar
        </CharString>
        <CharString name="agrave">
          -96 callsubr
          99 451 -62 callsubr
        </CharString>
        <CharString name="ampersand">
          182 -9 62 -32 -21 657 55 hstemhm
          52 96 -14 93 hintmask 10101000
          265 452 rmoveto
          -27 31 -11 31 28 vvcurveto
          67 61 48 62 27 26 -9 -23 23 vhcurveto
          -16 -95 46 -19 63 129 rlineto
          49 -39 -64 23 -67 hhcurveto
          -117 -98 -66 -120 -65 33 -43 44 -44 hvcurveto
          hintmask 10110000
          -76 -42 -83 -87 -89 vvcurveto
          -88 69 -77 115 133 69 96 24 16 vhcurveto
          hintmask 01110000
          57 -47 63 -36 84 -28 rrcurveto
          39 hlineto
          10 35 -71 20 -67 54 -69 72 rlinecurve
          102 154 84 36 rlineto
          30 -205 47 callsubr
          69 -10 -78 -121 -64 69 -64 81 -69 80 rlinecurve
          hintmask 10110000
          -6 -399 rmoveto
          -75 -36 47 59 59 40 64 64 43 hvcurveto
          57 -68 49 -59 55 -51 rrcurveto
          -24 -19 -58 -70 -77 hhcurveto
          endchar
        </CharString>
        <CharString name="aring">
          -20 callsubr
          47 39 155 39 hstemhm
          45 100 11 49 135 49 -34 90 hintmask 0111111010000000
          -101 callsubr
          hintmask 1011111010000000
          -33 callsubr
          hintmask 0111111010000000
          -78 callsubr
          hintmask 1011111100000000
          -47 callsubr
          11 561 -55 callsubr
        </CharString>
        <CharString name="asciicircum">
          425 422 -21 315 -20 hstem
          546 716 rmoveto
          -100 hlineto
          -246 -315 4 callsubr
          241 251 241 -251 74 callsubr
        </CharString>
        <CharString name="asciitilde">
          83 288 269 rmoveto
          34 -16 69 -30 53 18 42 13 77 56 8 8 -38 37 rcurveline
          -40 -22 -21 -11 -24 -12 -9 -1 rlinecurve
          -25 -4 -36 21 -31 12 -33 15 -71 32 -51 -19 -42 -13 -75 -55 -7 -7 35 -39 rcurveline
          40 22 21 11 23 10 9 3 rlinecurve
          27 4 34 -21 31 -12 rrcurveto
          endchar
        </CharString>
        <CharString name="asterisk">
          -71 359 -21 383 -20 hstem
          270 569 rmoveto
          21 152 rlineto
          -87 hlineto
          22 -152 rlineto
          -15 -12 rmoveto
          -138 67 -27 -83 151 -26 rlineto
          9 -15 rmoveto
          -106 -110 70 -52 72 136 rlineto
          16 4 rmoveto
          72 -134 71 50 -107 111 rlineto
          2 14 rmoveto
          149 27 -25 83 -139 -67 rlineto
          endchar
        </CharString>
        <CharString name="at">
          250 -120 52 125 87 -74 74 350 43 -43 56 126 52 hstemhm
          11 72 124 88 451 51 hintmask 1100111110000000
          535 499 rmoveto
          29 -15 -27 22 -47 hhcurveto
          -113 -126 -144 -188 -112 54 -49 66 67 79 126 53 29 hvcurveto
          -25 -128 1 -6 2 -6 2 -5 rlinecurve
          3 -9 3 -9 5 -1 rrcurveto
          hintmask 1011011110000000
          -1 7 11 -1 15 hhcurveto
          169 102 155 167 167 -104 169 -240 -294 -148 -227 -219 -220 154 -182 251 131 121 54 18 31 hvcurveto
          1 -4 8 -3 11 vhcurveto
          -3 5 -2 7 -2 7 rrcurveto
          -24 -56 -95 -35 -117 hhcurveto
          -176 -158 124 237 216 151 167 215 184 113 -114 -172 -125 -67 -124 -127 -13 hvcurveto
          63 409 rlineto
          -75 hlineto
          -20 -84 rmoveto
          -30 -55 -279 -122 -39 -9 54 37 66 43 193 125 40 17 -17 -24 vhcurveto
          endchar
        </CharString>
        <CharString name="atilde">
          -77 callsubr
          103 493 -104 callsubr
        </CharString>
        <CharString name="b">
          31 -13 55 409 77 61 callsubr
          98 90 271 99 vstem
          98 26 rmoveto
          -27 52 70 -12 56 hhcurveto
          157 125 91 203 152 -99 95 -113 -52 -55 -20 -45 -51 hvcurveto
          287 vlineto
          -178 -24 5 -44 83 -16 rlineto
          90 -259 rmoveto
          29 46 42 15 39 hhcurveto
          88 56 -75 -123 -124 -63 -87 -101 -33 -36 10 19 -38 hvcurveto
          endchar
        </CharString>
        <CharString name="backslash">
          76 callsubr
          15 700 rmoveto
          460 -857 rlineto
          83 hlineto
          -460 857 rlineto
          endchar
        </CharString>
        <CharString name="bar">
          -96 -224 -21 1021 -20 hstem
          200 71 vstem
          271 -245 rmoveto
          1021 -71 -1021 vlineto
          endchar
        </CharString>
        <CharString name="braceleft">
          48 callsubr
          162 83 -83 195 cntrmask 11100000
          hintmask 11110000
          50 270 rmoveto
          41 hlineto
          48 23 -30 -53 hvcurveto
          -186 vlineto
          hintmask 11101000
          -156 132 0 63 5 vhcurveto
          32 vlineto
          hintmask 11110000
          -77 -35 47 44 hvcurveto
          202 vlineto
          69 -55 40 -15 3 vhcurveto
          15 3 55 38 71 vvcurveto
          202 vlineto
          hintmask 11101000
          68 60 22 52 vhcurveto
          32 vlineto
          -82 -113 11 -162 hvcurveto
          -186 vlineto
          -53 -23 -30 -48 vhcurveto
          -41 hlineto
          endchar
        </CharString>
        <CharString name="braceright">
          48 callsubr
          50 195 -83 83 cntrmask 11100000
          hintmask 11110000
          357 303 rmoveto
          -41 hlineto
          -48 -23 30 53 hvcurveto
          186 vlineto
          162 -113 -11 -82 vhcurveto
          -32 vlineto
          hintmask 11101000
          52 60 -22 -68 hvcurveto
          -202 vlineto
          -71 55 -38 15 -3 vhcurveto
          -15 -3 -55 -40 -69 vvcurveto
          -202 vlineto
          hintmask 11110000
          -44 -35 -47 -77 vhcurveto
          -32 vlineto
          63 -5 132 0 156 vvcurveto
          186 vlineto
          53 23 30 48 vhcurveto
          41 hlineto
          endchar
        </CharString>
        <CharString name="bracketleft">
          72 callsubr
          140 80 -80 160 hintmask 11010000
          140 -149 rmoveto
          160 45 hlineto
          hintmask 11100000
          -80 795 hlineto
          hintmask 11010000
          80 45 -160 hlineto
          endchar
        </CharString>
        <CharString name="bracketright">
          72 callsubr
          35 160 -80 80 hintmask 11100000
          195 736 rmoveto
          -160 -45 hlineto
          hintmask 11010000
          80 -795 hlineto
          hintmask 11100000
          -80 -45 160 hlineto
          endchar
        </CharString>
        <CharString name="breve">
          266 731 55 -55 164 hstemhm
          201 100 226 100 hintmask 10110000
          414 786 rmoveto
          hintmask 01110000
          -80 -33 26 83 hvcurveto
          -100 hlineto
          -117 97 -47 116 116 97 47 117 vhcurveto
          -100 hlineto
          hintmask 10110000
          -83 -33 -26 -80 vhcurveto
          endchar
        </CharString>
        <CharString name="brokenbar">
          -8 -173 -21 880 -20 hstem
          239 71 vstem
          310 301 rmoveto
          385 -71 -385 vlineto
          71 -495 rmoveto
          385 -71 -385 vlineto
          endchar
        </CharString>
        <CharString name="bullet">
          94 255 -21 321 -20 hstem
          170 394 rmoveto
          -88 72 -72 89 88 72 72 88 89 -72 72 -88 -89 -72 -72 -89 vhcurveto
          endchar
        </CharString>
        <CharString name="c">
          -69 -11 66 419 55 hstem
          40 100 -45 callsubr
          endchar
        </CharString>
        <CharString name="caron">
          80 callsubr
          261 619 rmoveto
          -96 131 rlineto
          -55 hlineto
          116 -179 rlineto
          -1 71 vlineto
          -1 1 117 179 rlineto
          -55 hlineto
          endchar
        </CharString>
        <CharString name="ccedilla">
          -69 -225 -21 235 66 419 55 hstem
          40 100 109 127 -45 callsubr
          -138 -524 -44 callsubr
        </CharString>
        <CharString name="cedilla">
          -248 -219 -21 255 -20 hstem
          127 127 vstem
          127 -61 -44 callsubr
        </CharString>
        <CharString name="cent">
          -79 -56 -21 675 -20 hstemhm
          35 98 126 50 -50 201 hintmask 11110000
          259 -77 rmoveto
          50 68 hlineto
          60 5 57 26 47 44 -22 38 rcurveline
          -40 -31 -58 -17 -44 -1 rrcurveto
          419 vlineto
          40 -3 25 -13 11 -19 25 -98 rcurveline
          hintmask 11101000
          50 5 rlineto
          138 vlineto
          hintmask 11110000
          -48 28 -52 15 -51 3 rrcurveto
          68 -50 -69 vlineto
          -122 -13 -102 -87 -167 vvcurveto
          -162 100 -99 124 -11 vhcurveto
          -126 274 rmoveto
          132 46 64 80 12 vhcurveto
          -411 vlineto
          -68 16 -58 62 125 vvcurveto
          endchar
        </CharString>
        <CharString name="circumflex">
          80 callsubr
          358 570 -91 callsubr
        </CharString>
        <CharString name="colon">
          -262 5 -21 536 -20 hstem
          80 11 callsubr
          392 6 callsubr
        </CharString>
        <CharString name="comma">
          -34 callsubr
        </CharString>
        <CharString name="copyright">
          333 -24 52 124 47 334 49 114 52 hstem
          65 63 122 93 428 64 vstem
          450 748 -52 callsubr
          83 -489 rmoveto
          -5 -21 -14 -3 -31 hhcurveto
          -68 -56 42 125 115 52 52 68 33 13 -6 -9 23 hvcurveto
          21 -81 29 4 2 115 rlineto
          16 -35 -34 10 -39 hhcurveto
          -113 -113 -87 -129 -141 95 -73 109 43 53 13 19 40 hvcurveto
          -1 115 -30 5 rlineto
          endchar
        </CharString>
        <CharString name="currency">
          -36 106 -21 44 66 231 66 39 -20 hstem
          82 66 231 66 vstem
          82 310 rmoveto
          -41 13 -36 23 -31 vhcurveto
          -73 -72 45 -45 75 73 rlineto
          -19 28 35 -10 36 hhcurveto
          37 34 10 21 30 hvcurveto
          76 -75 45 45 -75 74 rlineto
          23 31 11 35 40 vvcurveto
          39 -12 35 -20 29 vhcurveto
          73 73 -45 45 -73 -72 rlineto
          21 -29 -36 12 -39 hhcurveto
          -39 -34 -12 -20 -29 hvcurveto
          -72 71 -45 -45 71 -71 rlineto
          -21 -31 -13 -35 -39 vvcurveto
          66 hmoveto
          64 52 52 64 64 51 -52 -64 -64 -51 -51 -64 -64 -52 51 64 vhcurveto
          endchar
        </CharString>
        <CharString name="d">
          38 -8 66 -37 -21 467 56 227 -20 hstemhm
          40 100 273 89 hintmask 01111100
          413 hmoveto
          147 hlineto
          10 46 -68 17 rlineto
          687 2 callsubr
          -177 vlineto
          23 -37 -41 11 -40 hhcurveto
          -129 -126 -108 -172 hvcurveto
          hintmask 10111100
          -152 106 -99 111 63 48 24 41 45 vhcurveto
          hintmask 01111100
          hintmask 10111100
          -137 1 rmoveto
          -97 -39 94 112 120 78 83 84 37 39 -16 -36 35 hvcurveto
          -297 vlineto
          -36 -41 -53 -24 -43 hhcurveto
          endchar
        </CharString>
        <CharString name="degree">
          -231 444 52 172 52 hstem
          30 52 172 52 vstem
          30 581 rmoveto
          -76 61 -61 76 77 62 61 76 77 -62 62 -77 -76 -61 -62 -77 vhcurveto
          52 hmoveto
          49 37 38 48 49 38 -38 -49 -48 -38 -37 -49 -48 -37 37 48 vhcurveto
          endchar
        </CharString>
        <CharString name="dieresis">
          -195 617 -21 126 -20 hstem
          230 658 -107 callsubr
        </CharString>
        <CharString name="divide">
          317 54 -21 230 77 230 -20 hstem
          140 263 rmoveto
          604 77 -604 hlineto
          223 157 -82 callsubr
          -393 6 callsubr
        </CharString>
        <CharString name="dollar">
          -12 -147 -21 876 -20 176 -20 hstemhm
          61 95 110 50 -50 215 -68 95 hintmask 11111010
          55 33 rmoveto
          30 -22 88 -24 93 3 rrcurveto
          -158 50 161 vlineto
          100 11 92 50 119 vvcurveto
          123 -99 50 -93 40 vhcurveto
          270 vlineto
          27 -1 26 -6 24 -9 38 -149 rcurveline
          hintmask 11110100
          50 5 rlineto
          169 vlineto
          hintmask 11111010
          25 -27 -65 18 -73 hhcurveto
          156 -50 -158 vlineto
          -104 -13 -101 -49 -118 vvcurveto
          -133 110 -37 95 -40 vhcurveto
          -276 vlineto
          -43 -1 -44 7 -37 15 -37 146 rcurveline
          -50 -5 rlineto
          101 323 rmoveto
          72 49 42 61 13 vhcurveto
          -245 vlineto
          -61 29 -49 30 59 vvcurveto
          257 -352 rmoveto
          -73 -41 -37 -56 -15 vhcurveto
          246 vlineto
          55 -26 42 -33 -62 vvcurveto
          endchar
        </CharString>
        <CharString name="dotaccent">
          -8 599 -21 158 -20 hstem
          200 656 rmoveto
          16 -33 29 -28 33 -17 34 19 27 27 20 34 -19 33 -26 26 -33 19 -35 -19 -27 -27 -19 -34 rrcurveto
          endchar
        </CharString>
        <CharString name="dotlessi">
          82 callsubr
          527 -79 callsubr
          endchar
        </CharString>
        <CharString name="e">
          -27 15 callsubr
          -97 callsubr
          endchar
        </CharString>
        <CharString name="eacute">
          -26 15 callsubr
          220 -20 -97 callsubr
          40 426 -54 callsubr
        </CharString>
        <CharString name="ecircumflex">
          -60 callsubr
          -11 248 -71 callsubr
          hlineto
          -116 -180 -43 callsubr
        </CharString>
        <CharString name="edieresis">
          -26 15 callsubr
          194 -20 -97 callsubr
          -73 336 -107 callsubr
        </CharString>
        <CharString name="egrave">
          -60 callsubr
          -139 260 -62 callsubr
        </CharString>
        <CharString name="eight">
          23 -15 56 618 56 hstemhm
          59 105 -73 103 217 105 -71 71 -71 104 hintmask 11100010
          549 188 rmoveto
          99 -86 50 -68 35 vhcurveto
          hintmask 11010100
          91 45 30 64 69 vvcurveto
          109 -92 56 -110 -141 -82 -91 -92 -69 45 -67 67 -35 vhcurveto
          hintmask 11100010
          -110 -51 -34 -75 -73 vvcurveto
          -124 119 -53 121 124 126 65 138 vhcurveto
          -104 -30 rmoveto
          -76 -70 -41 -70 -70 -71 39 97 71 45 63 48 24 vhcurveto
          105 -48 83 -26 -103 vvcurveto
          hintmask 11011000
          -251 391 rmoveto
          72 52 38 60 59 46 -35 -72 -71 -24 -44 -44 -41 vhcurveto
          -37 16 -43 25 -19 12 rrcurveto
          -40 27 -10 37 36 vvcurveto
          endchar
        </CharString>
        <CharString name="emdash">
          477 192 76 hstem
          192 vmoveto
          1044 76 -1044 hlineto
          endchar
        </CharString>
        <CharString name="endash">
          6 192 76 hstem
          -1 192 73 callsubr
        </CharString>
        <CharString name="equal">
          267 173 71 117 71 hstem
          120 361 rmoveto
          594 71 -594 hlineto
          -259 vmoveto
          594 71 -594 hlineto
          endchar
        </CharString>
        <CharString name="eth">
          21 -8 55 428 55 297 -20 hstemhm
          40 100 274 114 -100 100 hintmask 11111000
          224 623 rmoveto
          76 63 61 -32 50 -100 3 -52 rlinecurve
          21 -47 -36 7 -32 hhcurveto
          -166 -93 -132 -140 -145 79 -121 160 128 121 124 232 172 -58 146 -115 67 hvcurveto
          63 52 -35 42 -77 -65 -37 17 -40 9 -45 2 rlinecurve
          -24 -39 -2 -2 hhcurveto
          -46 vlineto
          15 16 -1 -1 16 hvcurveto
          27 -3 34 -5 27 -13 -65 -54 rcurveline
          236 -238 rmoveto
          hintmask 11110100
          1 -16 2 -21 -23 vvcurveto
          -131 -23 -189 -125 -95 -45 91 131 108 47 98 113 27 51 -2 -20 44 vhcurveto
          endchar
        </CharString>
        <CharString name="exclam">
          -202 5 66 callsubr
          243 661 rmoveto
          -16 31 -13 11 -29 16 -28 -17 -16 -15 -16 -27 31 -455 rcurveline
          55 hlineto
          -101 -150 rmoveto
          12 callsubr
        </CharString>
        <CharString name="exclamdown">
          -202 7 66 callsubr
          211 500 rmoveto
          -55 hlineto
          -31 -455 16 -27 16 -15 28 -17 rlinecurve
          29 16 13 11 16 31 rrcurveto
          -133 606 13 callsubr
          endchar
        </CharString>
        <CharString name="f">
          -202 50 callsubr
          55 200 55 hstem
          122 90 vstem
          299 757 rmoveto
          -85 -91 -48 -133 hvcurveto
          -1 -74 rlineto
          -87 -55 87 -387 hlineto
          -87 21 callsubr
          278 33 callsubr
          -111 14 rlineto
          385 133 55 -133 73 vlineto
          97 27 30 60 16 21 -4 -8 16 vhcurveto
          28 -110 44 callsubr
          23 -39 -53 11 -39 hhcurveto
          endchar
        </CharString>
        <CharString name="five">
          49 -14 55 317 67 186 90 52 -20 hstem
          124 54 258 109 vstem
          546 740 rmoveto
          -52 13 -30 -52 rlineto
          -326 hlineto
          -28 -351 rlineto
          46 hlineto
          20 3 20 0 23 3 rrcurveto
          1 13 11 1 12 hhcurveto
          126 3 55 -82 -80 vvcurveto
          -112 -81 -46 -91 -43 -42 11 16 -35 56 callsubr
          -29 65 76 -15 72 hhcurveto
          143 129 64 161 107 -79 107 -163 -47 -45 -6 -9 -41 hvcurveto
          16 201 rlineto
          314 hlineto
          endchar
        </CharString>
        <CharString name="foundryicon">
          489 138 59 -18 33 -1 29 11 33 1 31 hstemhm
          51 38 -38 107 136 170 -93 93 12 90 23 35 75 36 28 36 23 170 -89 89 -33 33 hintmask 1011110101111010
          1007 282 rmoveto
          1 -4 -2 1 -5 hhcurveto
          -7 -7 -3 -7 -5 hvcurveto
          7 -9 -10 3 -12 hhcurveto
          -27 -16 -16 -21 -13 5 -10 9 -5 hvcurveto
          -9 -8 -5 -10 -12 vvcurveto
          -8 3 -9 7 -5 vhcurveto
          hintmask 1011110101111001
          46 -29 27 hlineto
          3 5 3 7 11 vvcurveto
          24 -13 12 -26 vhcurveto
          -18 hlineto
          hintmask 0101110101111100
          15 vlineto
          hintmask 1011110101111100
          -1 2 4 0 6 hhcurveto
          31 14 16 19 2 0 2 -1 1 hvcurveto
          16 hlineto
          -739 hmoveto
          31 -43 -31 9 vlineto
          -11 -42 -5 24 -14 49 rlineto
          -38 -31 10 hlineto
          24 -69 rlineto
          14 hlineto
          -7 -3 -7 -4 -11 hhcurveto
          -17 -26 hlineto
          -5 5 8 -2 13 hhcurveto
          19 16 8 29 8 hvcurveto
          hintmask 0101101101111100
          -87 37 rmoveto
          -32 hlineto
          hintmask 1011110101111100
          -25 -12 12 25 21 10 15 19 4 3 0 -1 2 hvcurveto
          -15 vlineto
          hintmask 0101101101111100
          31 40 hlineto
          4 -13 -14 3 -12 hhcurveto
          -45 -23 -28 -43 -41 25 -25 41 15 14 3 5 12 hvcurveto
          590 -8 rmoveto
          32 19 20 33 33 -19 19 -31 -31 -19 -20 -33 -35 16 -17 33 hvcurveto
          -264 72 rmoveto
          25 hlineto
          17 5 -5 -5 hvcurveto
          hintmask 1011110101111100
          -1 -16 vlineto
          -28 -11 -11 -19 hvcurveto
          hintmask 0101110011111100
          -20 15 -11 19 11 8 3 5 6 vhcurveto
          -5 4 7 -2 11 hhcurveto
          8 7 2 3 5 hvcurveto
          27 -11 34 vlineto
          25 -15 13 -31 -13 -11 -3 -4 -12 vhcurveto
          -52 -65 rmoveto
          -14 -8 4 8 -3 hvcurveto
          55 hlineto
          1 7 1 6 5 vvcurveto
          24 -17 18 -27 -33 -16 -22 -32 -32 18 -19 35 12 14 2 5 11 vhcurveto
          26 vlineto
          361 39 rmoveto
          -39 -9 -10 callsubr
          hintmask 0101110101111100
          -517 hmoveto
          -39 -10 -10 callsubr
          307 -43 rmoveto
          -19 9 -9 18 9 7 1 3 6 vhcurveto
          28 -14 104 -47 -31 12 vlineto
          62 -86 rmoveto
          -11 7 -8 13 15 7 8 11 11 -7 9 -15 -13 -7 -9 -11 vhcurveto
          98 7 rmoveto
          -9 -5 9 17 16 5 8 9 9 5 -8 -16 -17 -5 -9 -9 hvcurveto
          187 41 rmoveto
          10 4 5 8 7 3 -5 -10 -10 -3 -5 -7 -8 -4 5 10 vhcurveto
          -416 -43 rmoveto
          -7 -3 3 6 6 4 3 9 hvcurveto
          8 -15 hlineto
          -2 -3 -3 -1 -5 hhcurveto
          -101 54 rmoveto
          8 4 -5 -11 hvcurveto
          -25 hlineto
          11 2 4 5 7 hhcurveto
          endchar
        </CharString>
        <CharString name="four">
          21 0 223 -55 55 492 -20 hstemhm
          366 100 hintmask 10110000
          258 35 rmoveto
          -35 293 -41 callsubr
          hintmask 01110000
          104 96 55 -96 492 -47 vlineto
          -389 -520 rlineto
          -27 336 -104 vlineto
          -247 159 rmoveto
          247 328 rlineto
          -328 vlineto
          endchar
        </CharString>
        <CharString name="foursuperior">
          -180 354 119 -43 43 248 -20 hstemhm
          233 60 hintmask 01110000
          177 372 rmoveto
          -18 vlineto
          hintmask 10110000
          159 hlineto
          6 23 -49 15 rlineto
          -9 callsubr
        </CharString>
        <CharString name="fraction">
          -461 19 callsubr
        </CharString>
        <CharString name="g">
          17 -247 58 165 85 100 55 215 68 -22 22 -22 53 hstemhm
          35 92 -74 100 -71 71 210 100 -100 206 -104 68 hintmask 1111001001010000
          266 161 rmoveto
          100 97 45 133 36 -6 31 -13 27 hvcurveto
          hintmask 1110101000100000
          125 -3 rlineto
          69 vlineto
          -25 -2 -24 -2 -22 -1 rrcurveto
          -3 -39 -41 -2 -19 hhcurveto
          hintmask 1110010101010000
          28 -35 -47 13 -52 hhcurveto
          -110 -102 -56 -135 -80 41 -47 59 -27 hvcurveto
          hintmask 1111000011010000
          -45 -27 -26 -40 -35 vvcurveto
          -31 13 -26 27 -19 vhcurveto
          hintmask 1111001001010000
          -53 -35 -34 -35 -51 vvcurveto
          -91 79 -42 120 141 158 74 129 56 -34 46 -85 3 vhcurveto
          -188 hlineto
          -44 1 -21 17 23 vvcurveto
          25 18 24 23 17 vhcurveto
          -5 21 22 -2 21 hhcurveto
          2 55 rmoveto
          hintmask 1110100101010000
          -82 -33 54 72 75 35 60 70 72 33 -63 -75 -72 -28 -51 -67 hvcurveto
          98 -240 rmoveto
          77 22 -16 -39 -59 -94 -51 -94 hvcurveto
          hintmask 1111001001010000
          -88 -62 25 77 25 11 25 22 26 hvcurveto
          -9 25 29 -4 33 hhcurveto
          endchar
        </CharString>
        <CharString name="germandbls">
          91 0 45 -34 -21 714 53 hstemhm
          97 90 100 93 43 94 37 94 hintmask 10111110
          483 490 rmoveto
          19 27 15 38 35 vvcurveto
          110 -83 57 -119 -116 -101 -48 -133 vhcurveto
          -1 -516 -87 21 callsubr
          177 575 vlineto
          97 58 32 60 83 35 -55 -57 -21 -3 -37 -12 -16 vhcurveto
          -56 -19 -65 -42 -72 -168 267 29 -116 vvcurveto
          -60 -44 -25 -59 -39 -21 8 15 -35 vhcurveto
          -27 99 -52 -9 rlineto
          -134 vlineto
          hintmask 01111110
          28 callsubr
          57 59 17 44 16 vhcurveto
          endchar
        </CharString>
        <CharString name="grave">
          -40 603 -21 168 -20 hstem
          263 582 -62 callsubr
        </CharString>
        <CharString name="greater">
          78 callsubr
          729 332 rmoveto
          -609 247 rlineto
          -78 vlineto
          506 -200 -506 -200 rlineto
          -78 vlineto
          609 247 rlineto
          endchar
        </CharString>
        <CharString name="guillemotleft">
          -59 -39 callsubr
          194 2 8 callsubr
          -48 -80 -89 -106 42 callsubr
          -106 48 -80 1 callsubr
          endchar
        </CharString>
        <CharString name="guillemotright">
          -59 43 callsubr
          373 -36 callsubr
          -194 hmoveto
          -11 callsubr
          48 80 89 106 54 51 rrcurveto
          10 vlineto
          -54 51 -89 106 -48 -15 callsubr
          endchar
        </CharString>
        <CharString name="guilsinglleft">
          -253 -39 callsubr
          endchar
        </CharString>
        <CharString name="guilsinglright">
          -268 43 callsubr
          164 -36 callsubr
          endchar
        </CharString>
        <CharString name="h">
          51 50 callsubr
          82 221 -20 hstem
          108 90 83 callsubr
          vstem
          198 750 rmoveto
          -178 -24 5 -41 83 -16 rlineto
          -609 vlineto
          -88 -30 rlineto
          -30 243 vlineto
          10 48 -75 -1 callsubr
          -1 283 rlineto
          51 callsubr
          endchar
        </CharString>
        <CharString name="hungarumlaut">
          -178 595 183 -163 -21 183 -20 hstemhm
          hintmask 10000000
          255 778 -66 callsubr
          hintmask 01100000
          279 182 -54 callsubr
        </CharString>
        <CharString name="hyphen">
          -223 195 75 hstem
          50 195 rmoveto
          244 75 -244 hlineto
          endchar
        </CharString>
        <CharString name="i">
          82 callsubr
          742 -79 callsubr
          -123 611 7 callsubr
        </CharString>
        <CharString name="iacute">
          82 callsubr
          748 -20 hstem
          123 90 vstem
          324 748 -66 callsubr
          19 -38 -76 callsubr
          endchar
        </CharString>
        <CharString name="icircumflex">
          -23 callsubr
          50 508 -91 callsubr
        </CharString>
        <CharString name="idieresis">
          82 callsubr
          722 -79 callsubr
          -5 596 -107 callsubr
        </CharString>
        <CharString name="igrave">
          -23 callsubr
          -73 520 -62 callsubr
        </CharString>
        <CharString name="j">
          -285 -234 57 919 -20 hstem
          112 90 vstem
          112 -41 rmoveto
          -62 -5 -74 -63 -14 -17 4 8 -20 vhcurveto
          -28 109 -50 -10 rlineto
          -133 vlineto
          -24 36 40 -11 37 hhcurveto
          91 83 68 123 hvcurveto
          570 vlineto
          -31 callsubr
          -32 226 7 callsubr
        </CharString>
        <CharString name="k">
          -2 21 -21 750 -20 hstem
          108 90 vstem
          198 179 rmoveto
          79 78 164 -257 rlineto
          129 hlineto
          10 48 -71 13 -166 260 118 116 96 36 rlineto
          30 -220 47 callsubr
          64 -10 -193 -196 rlineto
          501 vlineto
          -31 callsubr
          -610 -49 callsubr
          endchar
        </CharString>
        <CharString name="l">
          -249 21 -21 750 -20 hstem
          118 90 vstem
          208 750 rmoveto
          -31 callsubr
          -610 17 callsubr
          253 33 callsubr
          -85 14 rlineto
          endchar
        </CharString>
        <CharString name="less">
          78 callsubr
          120 270 rmoveto
          609 -247 rlineto
          78 vlineto
          -506 200 506 200 rlineto
          78 vlineto
          -609 -247 rlineto
          endchar
        </CharString>
        <CharString name="logicalnot">
          80 177 -21 186 71 hstem
          536 71 vstem
          33 342 rmoveto
          503 -186 71 257 -574 hlineto
          endchar
        </CharString>
        <CharString name="m">
          365 39 callsubr
          222 90 222 90 vstem
          524 62 rmoveto
          320 vlineto
          37 28 40 28 53 hhcurveto
          51 50 55 callsubr
          233 -27 callsubr
          -81 17 rlineto
          278 vlineto
          128 -66 61 -81 -64 -70 -41 -63 -44 vhcurveto
          71 -24 -45 33 -60 hhcurveto
          -56 -69 -28 -56 32 callsubr
          237 33 callsubr
          -71 35 callsubr
          27 53 20 43 hhcurveto
          55 44 55 callsubr
          229 -27 callsubr
          rlineto
          endchar
        </CharString>
        <CharString name="macron">
          -43 625 71 hstem
          105 625 rmoveto
          314 71 -314 hlineto
          endchar
        </CharString>
        <CharString name="minus">
          23 259 76 hstem
          60 259 rmoveto
          470 76 -470 hlineto
          endchar
        </CharString>
        <CharString name="mu">
          84 -203 -21 216 82 -53 -21 520 -6 callsubr
          hintmask 11011100
          200 520 rmoveto
          -90 -744 90 226 hlineto
          -7 19 20 -3 23 hhcurveto
          55 73 19 55 45 hvcurveto
          hintmask 10111100
          -66 -5 callsubr
          458 -89 -395 vlineto
          hintmask 11011100
          -28 callsubr
          endchar
        </CharString>
        <CharString name="multiply">
          17 64 -21 506 -20 hstem
          101 43 rmoveto
          195 201 202 -195 51 52 -202 196 195 201 -51 50 -195 -202 -210 203 -51 -52 210 -204 -194 -201 rlineto
          endchar
        </CharString>
        <CharString name="n">
          65 39 callsubr
          235 90 vstem
          537 345 rmoveto
          128 -3 -53 56 -96 hhcurveto
          -55 -73 -29 -55 -45 hvcurveto
          -37 callsubr
          endchar
        </CharString>
        <CharString name="nbspace">
          -307 endchar
        </CharString>
        <CharString name="nine">
          38 -11 45 247 59 317 54 hstem
          52 110 283 110 vstem
          162 490 rmoveto
          99 44 68 85 104 50 -102 -155 vhcurveto
          -39 -40 -51 -21 -48 hhcurveto
          -79 -65 51 99 hvcurveto
          278 -139 rmoveto
          -220 -165 -86 -141 -11 vhcurveto
          18 -45 rlineto
          175 -3 228 140 289 vvcurveto
          191 -98 105 -167 -137 -101 -106 -124 -137 101 -63 110 60 66 22 48 51 vhcurveto
          endchar
        </CharString>
        <CharString name="noBreak">
          -307 endchar
        </CharString>
        <CharString name="nonmarkingreturn">
          -307 endchar
        </CharString>
        <CharString name="ntilde">
          65 39 callsubr
          83 callsubr
          vstem
          536 345 rmoveto
          51 callsubr
          -37 callsubr
          -229 562 -104 callsubr
        </CharString>
        <CharString name="numbersign">
          275 -12 -21 246 70 137 70 245 -20 hstem
          377 -13 rmoveto
          60 -20 88 246 rlineto
          197 70 -171 hlineto
          49 137 rlineto
          172 70 -146 57 callsubr
          -174 57 callsubr
          -196 -70 171 hlineto
          -49 -137 rlineto
          -172 -70 146 hlineto
          -81 -226 60 -20 88 246 rlineto
          175 hlineto
          -100 207 rmoveto
          175 hlineto
          -49 -137 rlineto
          -175 hlineto
          endchar
        </CharString>
        <CharString name="o">
          -53 callsubr
          endchar
        </CharString>
        <CharString name="oacute">
          25 callsubr
          218 -20 -100 callsubr
          162 218 -54 callsubr
        </CharString>
        <CharString name="ocircumflex">
          -57 callsubr
          103 40 -91 callsubr
        </CharString>
        <CharString name="odieresis">
          25 callsubr
          192 -20 -100 callsubr
          48 128 -107 callsubr
        </CharString>
        <CharString name="oe">
          374 58 callsubr
          2 -20 hstemhm
          40 100 314 87 255 100 hintmask 10101111
          289 530 -59 callsubr
          84 64 44 64 40 hvcurveto
          hintmask 01110111
          -72 43 72 -37 77 20 callsubr
          355 hlineto
          125 -36 135 -178 -67 -74 -35 -72 -47 vhcurveto
          hintmask 10101111
          64 -41 -68 45 -96 hhcurveto
          255 -208 rmoveto
          hintmask 10110111
          -38 callsubr
          -492 -275 -80 callsubr
          endchar
        </CharString>
        <CharString name="ogonek">
          -243 75 -89 rmoveto
          -70 98 -52 74 5 vhcurveto
          7 31 -128 24 14 90 64 58 rlinecurve
          -61 11 -68 -39 -58 vvcurveto
          endchar
        </CharString>
        <CharString name="ograve">
          -57 callsubr
          -20 52 -62 callsubr
        </CharString>
        <CharString name="one">
          -11 21 -21 716 -20 hstem
          246 100 vstem
          346 64 rmoveto
          652 -34 vlineto
          -65 -33 -80 -41 -87 -33 rrcurveto
          -35 vlineto
          166 35 rlineto
          -545 vlineto
          -139 -29 rlineto
          -35 359 -27 callsubr
          rlineto
          endchar
        </CharString>
        <CharString name="onehalf">
          228 -11 -21 32 50 265 52 314 -20 hstemhm
          110 65 349 241 -70 70 hintmask 11111100
          543 9 callsubr
          -443 -321 rmoveto
          321 vlineto
          -31 2 -35 -17 -40 -21 -44 -16 rlinecurve
          -12 callsubr
          281 -343 -68 callsubr
          hintmask 11111010
          24 callsubr
          endchar
        </CharString>
        <CharString name="onequarter">
          187 -11 -21 32 119 -43 43 562 -20 hstemhm
          110 65 440 60 hintmask 11011100
          543 9 callsubr
          -443 -321 0 callsubr
          326 -325 rmoveto
          -18 159 vlineto
          6 23 -49 15 rlineto
          hintmask 10111100
          -9 callsubr
        </CharString>
        <CharString name="onesuperior">
          -259 376 -21 366 -20 hstem
          135 65 vstem
          200 398 0 callsubr
          endchar
        </CharString>
        <CharString name="ordfeminine">
          -232 389 38 253 33 hstemhm
          25 65 -44 235 -64 64 hintmask 11010000
          319 394 rmoveto
          6 27 -44 11 rlineto
          185 vlineto
          72 -60 24 -67 -47 -30 -17 -15 -31 vhcurveto
          -78 vlineto
          34 -6 17 69 rlineto
          9 16 18 5 19 hhcurveto
          hintmask 11101000
          32 35 -17 -45 hvcurveto
          -49 vlineto
          -43 -5 -41 -7 -38 -10 rrcurveto
          -52 -15 -18 -23 -40 vvcurveto
          -52 37 -28 44 34 54 26 28 23 vhcurveto
          -49 vlineto
          -127 79 rmoveto
          24 11 23 39 9 vhcurveto
          27 8 23 3 27 3 rrcurveto
          -69 vlineto
          -22 -14 -38 -25 -29 hhcurveto
          -25 -21 7 39 hvcurveto
          endchar
        </CharString>
        <CharString name="ordmasculine">
          -172 355 38 289 38 hstem
          30 74 189 72 vstem
          365 535 rmoveto
          104 -50 81 -117 -119 -49 -81 -104 -100 49 -80 120 116 50 80 100 vhcurveto
          -176 147 rmoveto
          76 28 -67 -80 -84 -28 -58 -60 -68 -33 63 80 86 18 60 67 hvcurveto
          endchar
        </CharString>
        <CharString name="oslash">
          27 -59 -21 72 55 428 55 45 -20 hstem
          40 100 314 100 vstem
          289 530 -26 callsubr
          -87 34 -82 72 -51 hvcurveto
          -50 -94 43 -24 50 94 rlineto
          -15 35 38 -7 43 hhcurveto
          160 89 137 135 88 -36 83 -75 51 hvcurveto
          37 69 -44 20 -36 -66 rlineto
          13 -32 -36 8 -43 hhcurveto
          15 -483 rmoveto
          -35 -27 7 15 -23 hvcurveto
          189 352 rlineto
          35 -43 11 -62 -63 vvcurveto
          -104 -43 -102 -107 vhcurveto
          -164 222 rmoveto
          104 43 102 107 32 26 -8 -13 23 vhcurveto
          -189 -349 rlineto
          -31 43 -11 60 61 vvcurveto
          endchar
        </CharString>
        <CharString name="otilde">
          -53 callsubr
          -4 94 -104 callsubr
        </CharString>
        <CharString name="p">
          37 70 callsubr
          59 callsubr
          527 68 callsubr
          -608 -2 callsubr
          -91 102 -113 -8 callsubr
        </CharString>
        <CharString name="paragraph">
          -26 -100 -21 769 40 hstem
          56 237 73 55 vstem
          502 688 rmoveto
          -220 hlineto
          -123 -3 -103 -28 -165 vvcurveto
          -189 109 -33 128 vhcurveto
          378 73 -769 55 748 vlineto
          81 30 rlineto
          endchar
        </CharString>
        <CharString name="parenleft">
          69 callsubr
          70 90 vstem
          70 268 rmoveto
          -170 65 -175 130 -122 vhcurveto
          30 22 rlineto
          -112 117 -23 175 153 vvcurveto
          153 23 175 112 117 vhcurveto
          -30 22 rlineto
          -130 -122 -65 -175 -170 vvcurveto
          endchar
        </CharString>
        <CharString name="parenright">
          69 callsubr
          205 90 vstem
          295 268 rmoveto
          170 -65 175 -130 122 vhcurveto
          -30 -22 rlineto
          112 -117 23 -175 -153 vvcurveto
          -153 -23 -175 -112 -117 vhcurveto
          30 -22 rlineto
          130 122 65 175 170 vvcurveto
          endchar
        </CharString>
        <CharString name="percent">
          134 -10 38 -7 -21 254 38 120 38 226 38 -14 -20 hstemhm
          35 65 148 64 77 65 148 64 hintmask 1011101111000000
          312 562 71 callsubr
          65 callsubr
          hintmask 0111011111000000
          189 138 rmoveto
          -376 -700 rlineto
          75 hlineto
          376 700 rlineto
          90 -560 71 callsubr
          vhcurveto
          hintmask 1011101111000000
          65 callsubr
          -418 422 34 callsubr
          354 -422 34 callsubr
          endchar
        </CharString>
        <CharString name="period">
          -282 5 -21 144 -20 hstem
          70 11 callsubr
          endchar
        </CharString>
        <CharString name="periodcentered">
          -258 253 -21 144 -20 hstem
          70 303 rmoveto
          12 callsubr
        </CharString>
        <CharString name="plus">
          267 21 -21 261 71 272 -20 hstem
          380 74 vstem
          120 261 rmoveto
          260 -261 74 261 260 71 -260 272 -74 -272 -260 hlineto
          endchar
        </CharString>
        <CharString name="plusminus">
          177 22 71 307 71 213 -20 hstem
          334 76 vstem
          120 22 rmoveto
          504 71 -504 hlineto
          307 vmoveto
          214 -224 76 224 214 71 -214 213 -76 -213 -214 hlineto
          endchar
        </CharString>
        <CharString name="q">
          8 -204 -21 214 68 414 55 hstem
          40 100 258 90 vstem
          398 103 rmoveto
          -27 -41 -41 -19 -36 hhcurveto
          -81 -59 70 107 130 52 107 128 23 26 -3 -8 29 hvcurveto
          1 -625 rmoveto
          -102 21 callsubr
          258 33 callsubr
          -76 14 -1 660 rlineto
          19 -58 -53 10 -49 hhcurveto
          -174 -114 -116 -190 -142 99 -89 109 51 52 18 43 47 hvcurveto
          endchar
        </CharString>
        <CharString name="question">
          -88 5 -21 672 56 hstemhm
          148 74 0 89 0 98 hintmask 11010000
          168 11 callsubr
          -23 585 rmoveto
          11 21 21 5 23 hhcurveto
          53 48 -32 -64 hvcurveto
          hintmask 11101000
          -94 -163 -54 -88 vvcurveto
          -80 52 -40 69 9 vhcurveto
          18 3 38 15 16 45 -36 28 rcurveline
          -24 -9 -13 -12 -17 hhcurveto
          -33 -11 22 27 hvcurveto
          84 187 3 172 vvcurveto
          95 -83 41 -91 -64 -65 -16 -27 -49 vhcurveto
          31 -140 49 7 rlineto
          endchar
        </CharString>
        <CharString name="questiondown">
          -88 -11 56 388 56 228 -20 hstemhm
          141 170 -163 74 89 98 hintmask 11101100
          168 646 13 callsubr
          -31 -481 rmoveto
          -49 7 -31 -140 rlineto
          -27 49 65 -16 64 hhcurveto
          91 83 39 97 hvcurveto
          172 -187 3 84 vvcurveto
          27 11 22 33 17 13 -12 -24 9 vhcurveto
          36 28 rlineto
          68 -24 -65 -4 -2 hhcurveto
          -60 -42 -40 -72 hvcurveto
          hintmask 11110000
          -88 163 -54 -94 vvcurveto
          -64 -48 -32 -53 -23 -21 5 11 -21 vhcurveto
          endchar
        </CharString>
        <CharString name="quotedbl">
          -237 482 -21 268 45 callsubr
          688 -16 callsubr
          188 227 -16 callsubr
          endchar
        </CharString>
        <CharString name="quotedblbase">
          -125 -122 30 callsubr
          196 83 -17 callsubr
          209 hmoveto
          -87 callsubr
        </CharString>
        <CharString name="quotedblleft">
          -125 480 30 callsubr
          35 530 rmoveto
          -50 callsubr
          216 hmoveto
          -50 callsubr
          endchar
        </CharString>
        <CharString name="quotedblright">
          -125 456 30 callsubr
          192 661 -17 callsubr
          210 hmoveto
          -87 callsubr
        </CharString>
        <CharString name="quoteleft">
          -335 481 30 callsubr
          36 531 rmoveto
          -50 callsubr
          endchar
        </CharString>
        <CharString name="quoteright">
          -335 463 30 callsubr
          194 668 rmoveto
          -87 callsubr
        </CharString>
        <CharString name="quotesinglbase">
          -34 callsubr
        </CharString>
        <CharString name="quotesingle">
          -377 482 -21 268 -20 hstem
          140 688 -16 callsubr
          endchar
        </CharString>
        <CharString name="r">
          -124 50 callsubr
          80 hstem
          123 89 vstem
          433 513 rmoveto
          9 -21 -22 5 -23 hhcurveto
          -59 -51 -34 -48 32 callsubr
          258 33 callsubr
          -92 35 callsubr
          27 52 20 43 hhcurveto
          5 10 0 -1 5 hvcurveto
          27 -76 52 9 rlineto
          endchar
        </CharString>
        <CharString name="registered">
          333 -24 52 131 230 -46 46 136 50 121 52 hstemhm
          65 63 196 71 135 77 164 64 hintmask 1101111110000000
          559 159 rmoveto
          95 hlineto
          8 29 -47 17 -82 145 rlineto
          39 17 35 30 56 vvcurveto
          107 -98 15 -71 vhcurveto
          -161 hlineto
          -8 -28 55 -21 rlineto
          -321 vlineto
          -55 -21 rlineto
          -25 177 vlineto
          4 29 -55 17 rlineto
          hintmask 1011111110000000
          138 70 vlineto
          hintmask 1101111110000000
          -27 182 rmoveto
          45 47 3 -67 -69 -47 -3 -45 hvcurveto
          -43 136 hlineto
          55 223 -52 callsubr
          endchar
        </CharString>
        <CharString name="ring">
          -63 576 39 155 39 hstem
          135 49 135 49 vstem
          135 692 -55 callsubr
        </CharString>
        <CharString name="s">
          -107 -10 55 427 55 hstemhm
          57 93 174 71 -71 94 hintmask 11101000
          47 24 rmoveto
          28 callsubr
          56 46 16 81 callsubr
          -102 rlineto
          hintmask 11110000
          52 9 rlineto
          125 77 callsubr
          -112 -38 -104 -168 271 29 -4 -116 hvcurveto
          -60 -1 -42 -25 -60 hhcurveto
          -39 -21 8 15 -35 hvcurveto
          -27 99 -52 -9 rlineto
          endchar
        </CharString>
        <CharString name="section">
          84 -188 51 813 51 hstemhm
          122 76 -60 91 193 91 -60 76 hintmask 11010100
          529 263 rmoveto
          -12 159 -288 73 105 vvcurveto
          56 68 20 81 callsubr
          -96 52 4 rlineto
          120 77 callsubr
          -132 -38 -104 hvcurveto
          hintmask 11101000
          -53 24 -42 36 -36 vhcurveto
          -56 -44 -21 -41 -64 vvcurveto
          -9 0 -9 1 -11 vhcurveto
          12 -159 288 -73 -105 vvcurveto
          -56 -68 -20 -51 -32 -14 3 7 -23 vhcurveto
          -27 96 -52 -4 rlineto
          -120 vlineto
          -20 20 52 -13 57 hhcurveto
          97 132 38 104 hvcurveto
          hintmask 11100100
          53 -25 42 -35 36 vhcurveto
          56 44 21 42 64 vvcurveto
          9 0 8 -1 11 vhcurveto
          -76 -58 rmoveto
          -35 -3 -22 -31 -32 vhcurveto
          -94 75 -127 52 91 vvcurveto
          33 3 23 31 33 vhcurveto
          93 -77 128 -50 -91 vvcurveto
          endchar
        </CharString>
        <CharString name="semicolon">
          -245 -154 -21 695 -20 hstem
          93 447 -82 callsubr
          145 -396 rmoveto
          -87 callsubr
        </CharString>
        <CharString name="seven">
          -17 21 -21 625 90 hstem
          75 715 rmoveto
          -203 vlineto
          52 -11 35 124 rlineto
          277 hlineto
          -116 -209 -105 -207 -97 -209 rrcurveto
          115 hlineto
          88 221 92 221 104 224 rrcurveto
          49 vlineto
          endchar
        </CharString>
        <CharString name="six">
          32 -11 54 317 59 247 45 hstem
          55 110 283 110 vstem
          448 210 rmoveto
          -99 -44 -68 -85 -104 -50 102 155 vhcurveto
          39 40 51 21 48 hhcurveto
          79 65 -51 -99 hvcurveto
          -278 139 rmoveto
          220 165 86 141 11 vhcurveto
          -18 45 rlineto
          -175 3 -228 -140 -289 vvcurveto
          -191 98 -105 167 137 101 106 124 137 -102 63 -109 -60 -66 -22 -48 -51 vhcurveto
          endchar
        </CharString>
        <CharString name="slash">
          76 callsubr
          500 700 rmoveto
          -460 -857 rlineto
          83 hlineto
          460 857 rlineto
          endchar
        </CharString>
        <CharString name="space">
          -217 endchar
        </CharString>
        <CharString name="sterling">
          -10 0 55 252 55 275 55 hstemhm
          125 99 -58 86 hintmask 11101000
          59 307 rmoveto
          94 hlineto
          7 -35 6 -33 -35 vvcurveto
          hintmask 11110000
          -47 -10 -46 -31 -47 vhcurveto
          -19 callsubr
          505 151 vlineto
          -42 -9 -21 -87 rlineto
          -278 hlineto
          hintmask 11101000
          45 56 13 57 60 vvcurveto
          27 -3 25 -3 27 vhcurveto
          185 55 -193 hlineto
          hintmask 11110000
          -7 44 -7 45 45 vvcurveto
          100 57 41 64 29 40 -8 -15 17 vhcurveto
          28 -111 44 callsubr
          27 -40 -64 19 -65 hhcurveto
          -107 -108 -52 -155 -41 8 -41 9 -41 hvcurveto
          -83 hlineto
          endchar
        </CharString>
        <CharString name="t">
          -174 -12 70 389 55 120 -20 hstem
          109 90 vstem
          359 93 rmoveto
          -25 -41 -30 -10 -31 hhcurveto
          -51 -7 22 73 hvcurveto
          294 160 55 -160 120 -50 vlineto
          -35 -110 -84 -30 rlineto
          -35 79 -318 vlineto
          -81 25 -60 88 60 65 33 48 31 vhcurveto
          endchar
        </CharString>
        <CharString name="thorn">
          47 70 callsubr
          197 -20 59 callsubr
          726 68 callsubr
          -807 -2 callsubr
          -92 102 -112 -8 callsubr
        </CharString>
        <CharString name="three">
          38 -8 53 298 60 257 55 hstemhm
          411 106 -92 110 hintmask 11101000
          535 204 rmoveto
          91 -74 51 -80 24 vhcurveto
          hintmask 11110000
          80 27 56 70 68 vvcurveto
          136 -107 44 -117 -79 -81 -19 -25 -63 vhcurveto
          -169 vlineto
          50 -10 34 141 rlineto
          20 32 43 7 40 hhcurveto
          86 56 -59 -75 -67 -41 -43 -77 -13 hvcurveto
          -60 -60 67 hlineto
          hintmask 11101000
          84 -17 41 -56 -64 vvcurveto
          -108 -65 -53 -115 -40 -40 8 20 -31 56 callsubr
          -27 64 82 -16 80 hhcurveto
          137 122 63 149 hvcurveto
          endchar
        </CharString>
        <CharString name="threequarters">
          218 -11 -21 32 50 272 45 160 -20 134 45 hstemhm
          208 70 236 241 -70 70 hintmask 11111110
          533 9 callsubr
          -104 -679 -68 callsubr
          hintmask 11111101
          24 callsubr
          -217 395 -69 callsubr
        </CharString>
        <CharString name="threesuperior">
          -205 351 45 131 -20 169 45 hstem
          233 70 vstem
          312 462 -69 callsubr
        </CharString>
        <CharString name="tilde">
          266 382 624 -104 callsubr
        </CharString>
        <CharString name="two">
          18 0 90 575 55 hstem
          397 110 vstem
          45 hmoveto
          485 169 hlineto
          -42 10 -20 -89 rlineto
          -293 hlineto
          239 223 93 80 129 vvcurveto
          139 -98 59 -132 -61 -98 -33 -40 -53 vhcurveto
          -169 vlineto
          50 -10 40 160 rlineto
          23 25 50 14 35 hhcurveto
          69 63 -36 -101 -152 -59 -29 -293 -285 hvcurveto
          endchar
        </CharString>
        <CharString name="twosuperior">
          -226 354 50 272 45 hstemhm
          50 241 -70 70 hintmask 11100000
          40 354 -68 callsubr
          hintmask 11010000
          24 callsubr
          endchar
        </CharString>
        <CharString name="u">
          70 -8 82 -53 -21 521 -6 callsubr
          hintmask 10111000
          110 176 rmoveto
          -128 1 55 -56 96 hhcurveto
          55 73 29 55 45 hvcurveto
          hintmask 01111000
          -61 callsubr
          hintmask 10111000
          -58 callsubr
          endchar
        </CharString>
        <CharString name="uacute">
          29 callsubr
          247 -92 callsubr
          348 289 -54 callsubr
        </CharString>
        <CharString name="ucircumflex">
          -64 callsubr
          300 111 -91 callsubr
        </CharString>
        <CharString name="udieresis">
          29 callsubr
          221 -92 callsubr
          247 199 -107 callsubr
        </CharString>
        <CharString name="ugrave">
          -64 callsubr
          154 123 -62 callsubr
        </CharString>
        <CharString name="underscore">
          -53 -165 76 hstem
          -30 -165 73 callsubr
        </CharString>
        <CharString name="uni00AD">
          -257 234 71 hstem
          24 234 rmoveto
          261 71 -261 hlineto
          endchar
        </CharString>
        <CharString name="uni2215">
          -567 19 callsubr
        </CharString>
        <CharString name="uniE0FF">
          -195 endchar
        </CharString>
        <CharString name="uniEFFD">
          -13 callsubr
        </CharString>
        <CharString name="uniF000">
          -342 endchar
        </CharString>
        <CharString name="v">
          -18 60 callsubr
          434 462 rmoveto
          -136 -341 -135 344 72 25 rlineto
          30 -230 vlineto
          -10 -45 72 -13 183 -462 rlineto
          59 hlineto
          183 460 72 30 49 callsubr
          rlineto
          endchar
        </CharString>
        <CharString name="w">
          245 60 callsubr
          680 462 rmoveto
          -87 -322 -146 380 rlineto
          -41 hlineto
          -123 -384 -127 329 78 25 rlineto
          30 -229 vlineto
          -10 -45 73 -13 175 -462 rlineto
          54 hlineto
          118 367 141 -367 rlineto
          56 hlineto
          124 460 76 30 49 callsubr
          rlineto
          endchar
        </CharString>
        <CharString name="x">
          9 60 callsubr
          205 472 rmoveto
          59 18 rlineto
          30 -226 vlineto
          -10 -45 77 -17 137 -197 -154 -206 -73 -25 rlineto
          -30 197 33 callsubr
          -66 6 119 160 116 -166 -53 -18 rlineto
          -30 223 -27 callsubr
          -81 18 -149 214 137 182 81 31 49 callsubr
          56 -8 -106 -140 rlineto
          endchar
        </CharString>
        <CharString name="y">
          -33 -230 86 664 -70 callsubr
          endchar
        </CharString>
        <CharString name="yacute">
          -33 -230 86 664 -20 248 -70 callsubr
          214 790 -54 callsubr
        </CharString>
        <CharString name="ydieresis">
          -28 520 -20 61 callsubr
          225 -42 rmoveto
          -41 -73 -7 -46 -127 24 -28 -83 rcurveline
          120 -32 62 58 38 65 28 52 29 72 -73 callsubr
          122 700 -107 callsubr
        </CharString>
        <CharString name="yen">
          43 0 187 -40 40 50 40 423 -20 hstemhm
          268 100 hintmask 10111000
          124 277 rmoveto
          -40 144 -50 -144 vlineto
          hintmask 01111000
          -40 144 -83 vlineto
          5 callsubr
          hintmask 10111000
          -35 280 -41 callsubr
          hintmask 01111000
          83 145 40 -145 50 145 40 -145 42 vlineto
          196 318 66 28 rlineto
          35 -176 vlineto
          -10 -45 59 -12 -168 -272 -175 274 65 20 rlineto
          35 -230 vlineto
          -10 -45 68 -19 215 -338 rlineto
          -21 vlineto
          endchar
        </CharString>
        <CharString name="z">
          -66 0 55 410 55 75 callsubr
          465 rmoveto
          207 hlineto
          -287 -436 rlineto
          -29 416 152 vlineto
          -52 9 -27 -106 rlineto
          -213 hlineto
          288 436 rlineto
          29 -412 vlineto
          1 -153 52 -9 rlineto
          endchar
        </CharString>
        <CharString name="zero">
          25 -9 55 612 55 hstem
          45 108 286 108 vstem
          296 713 rmoveto
          -184 -67 -167 -197 -195 68 -163 184 183 67 163 195 197 -67 167 -184 hvcurveto
          -2 -55 rmoveto
          101 44 -118 -189 -180 -38 -125 -109 -101 -38 125 180 189 42 118 99 hvcurveto
          endchar
        </CharString>
</ttFont>
